<?xml version="1.0" standalone="no"?>
<!DOCTYPE svg PUBLIC "-//W3C//DTD SVG 20010904//EN"
 "http://www.w3.org/TR/2001/REC-SVG-20010904/DTD/svg10.dtd">
<svg version="1.0" xmlns="http://www.w3.org/2000/svg"
 width="267.000000pt" height="267.000000pt" viewBox="0 0 267.000000 267.000000"
 preserveAspectRatio="xMidYMid meet">
<metadata>
Created by potrace 1.11, written by Peter Selinger 2001-2013
</metadata>
<g transform="translate(0.000000,267.000000) scale(0.100000,-0.100000)"
fill="#000000" stroke="none">
<path d="M1220 2037 c-3 -3 -23 -7 -46 -10 -195 -27 -346 -197 -346 -389 0
-139 65 -241 196 -302 55 -26 255 -83 386 -111 167 -35 266 -85 319 -163 22
-31 26 -48 26 -108 0 -61 -4 -77 -30 -120 -37 -59 -116 -115 -200 -141 -85
-26 -259 -23 -353 6 -86 26 -158 73 -194 127 -30 45 -58 138 -58 191 l0 33
-71 0 -72 0 6 -77 c22 -287 241 -436 616 -420 245 10 387 86 465 247 28 59 31
74 31 160 0 86 -3 101 -30 154 -62 123 -157 175 -462 251 -281 71 -317 83
-364 123 -52 44 -74 94 -72 161 3 113 65 197 179 241 77 30 251 34 329 6 97
-33 167 -92 206 -173 20 -41 24 -57 28 -110 1 -9 22 -13 72 -13 l71 0 -7 56
c-18 145 -97 254 -232 319 -76 37 -89 42 -145 53 -49 10 -240 16 -248 9z"/>
</g>
</svg>
