<?xml version="1.0" standalone="no"?>
<!DOCTYPE svg PUBLIC "-//W3C//DTD SVG 1.1//EN" "http://www.w3.org/Graphics/SVG/1.1/DTD/svg11.dtd" >
<svg xmlns="http://www.w3.org/2000/svg" xmlns:xlink="http://www.w3.org/1999/xlink" version="1.1">
<metadata>
Created by FontForge 20150824 at Thu Apr 28 04:10:51 2016
 By Everything Fonts
Copyright 1990-1993 Bitstream Inc.  All rights reserved.
</metadata>
<defs>
<font id="ufonts_com_frysbaskervillebt" horiz-adv-x="1024" >
  <font-face 
    font-family="ufonts_com_frysbaskervillebt"
    font-weight="400"
    font-stretch="normal"
    units-per-em="2048"
    panose-1="2 2 6 2 7 5 5 2 3 3"
    ascent="1638"
    descent="-410"
    x-height="862"
    cap-height="1384"
    bbox="-342 -483 2288 1964"
    underline-thickness="84"
    underline-position="-335"
    unicode-range="U+0020-F002"
  />
<missing-glyph horiz-adv-x="1229" 
d="M102 -362v1806h1024v-1806h-1024zM217 -248h795v1577h-795v-1577z" />
    <glyph glyph-name=".notdef" horiz-adv-x="1229" 
d="M102 -362v1806h1024v-1806h-1024zM217 -248h795v1577h-795v-1577z" />
    <glyph glyph-name=".null" horiz-adv-x="0" 
 />
    <glyph glyph-name="nonmarkingreturn" horiz-adv-x="541" 
 />
    <glyph glyph-name="space" unicode=" " horiz-adv-x="541" 
 />
    <glyph glyph-name="exclam" unicode="!" horiz-adv-x="606" 
d="M289 326l-84 833q-7 68 -8.5 90.5t-1.5 36.5q0 67 26.5 99t81.5 32q54 0 81.5 -32.5t27.5 -98.5q0 -19 -2.5 -52t-6.5 -75l-86 -833h-28zM303 -16q-48 0 -83.5 35.5t-35.5 82.5q0 50 35 84.5t84 34.5t84 -34.5t35 -84.5q0 -49 -35 -83.5t-84 -34.5z" />
    <glyph glyph-name="quotedbl" unicode="&#x22;" horiz-adv-x="678" 
d="M518 864h-31l-65 457q0 2 -1 6q-3 22 -3 33q0 49 22.5 75.5t63.5 26.5q40 0 62 -26t22 -74q0 -14 -0.5 -23t-1.5 -18zM190 864h-32l-64 457q-2 17 -3 26t-1 15q0 48 22 74t62 26q41 0 63.5 -26t22.5 -74q0 -9 -3 -34q-1 -5 -1 -7z" />
    <glyph glyph-name="numbersign" unicode="#" horiz-adv-x="1575" 
d="M700 868l-100 -286h289l102 286h-291zM778 1456h133l-168 -471h287l168 471h131l-166 -471h307l-40 -117h-310l-100 -286h332l-43 -115h-330l-166 -469h-133l166 469h-287l-166 -469h-131l166 469h-324l43 115h322l100 286h-348l43 117h348z" />
    <glyph glyph-name="dollar" unicode="$" horiz-adv-x="1081" 
d="M555 43q109 17 168 88t59 184q0 106 -53.5 185t-173.5 149v-606zM504 870v475q-92 -4 -148.5 -63.5t-56.5 -151.5q0 -71 46.5 -130.5t158.5 -129.5zM555 0v-199h-51l-1 201q-167 8 -272.5 92t-105.5 209q0 75 32 122.5t81 47.5q37 0 63.5 -27.5t26.5 -66.5
q0 -37 -32 -90.5t-32 -85.5q0 -65 65.5 -110.5t173.5 -53.5l1 639q-196 107 -269 191.5t-73 193.5q0 135 93 223t249 98v91h51v-90q149 -10 234 -76.5t85 -171.5q0 -52 -25 -82.5t-69 -30.5q-36 0 -60 22.5t-24 57.5q0 21 16.5 62.5t16.5 64.5q0 51 -44.5 80.5t-129.5 33.5
v-505q207 -118 287 -217.5t80 -231.5q0 -167 -98 -271.5t-269 -119.5z" />
    <glyph glyph-name="percent" unicode="%" horiz-adv-x="1622" 
d="M1243 -35q-126 0 -218.5 128t-92.5 308q0 181 92.5 308t218.5 127q127 0 218 -126.5t91 -308.5t-91 -309t-218 -127zM377 549q-127 0 -218 126t-91 308q0 181 91.5 307.5t217.5 126.5q127 0 218 -126t91 -308t-91 -308t-218 -126zM1241 6q73 0 113.5 103t40.5 292
t-40.5 291.5t-113.5 102.5q-72 0 -113 -103.5t-41 -290.5t41 -291t113 -104zM377 588q73 0 113 102.5t40 292.5q0 189 -40 292t-113 103q-72 0 -112 -103.5t-40 -291.5t40 -291.5t112 -103.5zM295 -35l944 1452h84l-942 -1452h-86z" />
    <glyph glyph-name="ampersand" unicode="&#x26;" horiz-adv-x="1489" 
d="M874 203q-92 -126 -182 -181t-205 -55q-164 0 -272.5 107t-108.5 264q0 136 76.5 246.5t237.5 206.5q-88 125 -122 203t-34 147q0 119 83.5 197.5t209.5 78.5q129 0 215 -70.5t86 -168.5q0 -85 -56 -155.5t-206 -164.5q75 -101 160.5 -211t183.5 -233q59 95 90 172
t31 127q0 60 -34.5 89.5t-106.5 31.5v28h391v-28q-124 -6 -242 -257q-59 -125 -100 -198q149 -182 229.5 -250t138.5 -68q47 0 78 30t37 81l25 -6q-8 -89 -72.5 -144t-161.5 -55q-85 0 -171.5 55t-197.5 181zM571 889q83 55 123.5 125t40.5 157q0 95 -50 152t-132 57
q-69 0 -112.5 -43t-43.5 -112q0 -55 38 -130t136 -206zM852 231q-120 145 -222.5 276.5t-187.5 252.5q-71 -44 -109 -124.5t-38 -184.5q0 -160 88 -276t205 -116q69 0 136 44t128 128z" />
    <glyph glyph-name="quotesingle" unicode="'" horiz-adv-x="348" 
d="M190 864h-32l-66 457q-1 8 -1.5 16t-0.5 23q0 50 21.5 76t62.5 26t63.5 -26t22.5 -74q0 -9 -3 -34q-1 -5 -1 -7z" />
    <glyph glyph-name="parenleft" unicode="(" horiz-adv-x="729" 
d="M643 -309q-213 156 -327.5 380.5t-114.5 483.5q0 258 114.5 482t327.5 380l23 -26q-143 -137 -217 -349.5t-74 -486.5q0 -273 74 -485t217 -351z" />
    <glyph glyph-name="parenright" unicode=")" horiz-adv-x="729" 
d="M90 1417q213 -156 327.5 -380t114.5 -482q0 -259 -114.5 -483.5t-327.5 -380.5l-22 28q143 139 216.5 351t73.5 485t-73.5 485t-216.5 351z" />
    <glyph glyph-name="asterisk" unicode="*" horiz-adv-x="948" 
d="M489 975v-21q0 -73 38 -160t38 -120q0 -38 -24.5 -63t-65.5 -25q-43 0 -67.5 23.5t-24.5 64.5q0 31 37 115t37 161v27q-73 -40 -145.5 -134.5t-125.5 -94.5q-35 0 -61.5 26.5t-26.5 65.5q0 47 38 73t111 29q61 3 110.5 18.5t82.5 43.5q-72 50 -197 59q-20 1 -30 2
q-50 4 -82.5 32.5t-32.5 67.5q0 38 26 65t62 27q54 0 124.5 -95t148.5 -134v21q0 74 -38 162.5t-38 115.5q0 41 24.5 65.5t65.5 24.5q44 0 68 -23t24 -65q0 -30 -36.5 -116.5t-36.5 -161.5v-25q73 42 144 136.5t128 94.5q33 0 59.5 -28.5t26.5 -63.5q0 -37 -31.5 -65.5
t-72.5 -32.5q-5 0 -16 -1q-157 -15 -222 -67q80 -49 202 -59q16 -1 25 -2q52 -5 83.5 -33.5t31.5 -70.5q0 -34 -29 -61.5t-63 -27.5q-51 0 -122 96.5t-147 133.5z" />
    <glyph glyph-name="plus" unicode="+" horiz-adv-x="1706" 
d="M795 1221h118v-551h539v-117h-539v-553h-118v553h-541v117h541v551z" />
    <glyph glyph-name="comma" unicode="," horiz-adv-x="541" 
d="M301 4q-18 -9 -32 -12.5t-29 -3.5q-44 0 -72.5 30.5t-28.5 77.5q0 53 35 89t84 36q59 0 96 -47.5t37 -124.5q0 -112 -67.5 -206t-192.5 -156l-12 24q87 58 133 132.5t49 160.5z" />
    <glyph glyph-name="hyphen" unicode="-" horiz-adv-x="639" 
d="M70 383v119h499v-119h-499z" />
    <glyph glyph-name="period" unicode="." horiz-adv-x="541" 
d="M270 -16q-47 0 -82.5 35.5t-35.5 82.5q0 50 34.5 84.5t83.5 34.5t84 -34.5t35 -84.5q0 -49 -35 -83.5t-84 -34.5z" />
    <glyph glyph-name="slash" unicode="/" horiz-adv-x="664" 
d="M590 1417h94l-682 -1607h-94z" />
    <glyph glyph-name="zero" unicode="0" horiz-adv-x="1081" 
d="M541 -33q-62 0 -125 36.5t-121 105.5q-99 116 -152 266.5t-53 316.5q0 165 52 313t153 269q58 70 121 106.5t125 36.5q60 0 122.5 -36t120.5 -105q99 -117 152 -268.5t53 -315.5q0 -170 -51 -315.5t-154 -265.5q-59 -72 -120 -108t-123 -36zM541 4q122 0 189 179t67 509
t-67 509t-189 179q-123 0 -189.5 -179t-66.5 -509t66.5 -509t189.5 -179z" />
    <glyph glyph-name="one" unicode="1" horiz-adv-x="1081" 
d="M469 1249h-209l1 29q146 7 229 36.5t126 88.5h23q-4 -31 -6 -67t-2 -103v-66v-864q0 -162 38.5 -215.5t137.5 -59.5v-28h-516v28q100 6 139 60.5t39 214.5v946z" />
    <glyph glyph-name="two" unicode="2" horiz-adv-x="1081" 
d="M47 0v33q365 350 522.5 587.5t157.5 432.5q0 154 -72.5 240.5t-201.5 86.5q-115 0 -185.5 -75t-70.5 -197q0 -121 67 -199t172 -78q4 0 12.5 1.5t12.5 1.5l2 -11q-33 -23 -66 -34t-71 -11q-103 0 -168.5 75t-65.5 194q0 166 107.5 269t281.5 103q185 0 305.5 -118.5
t120.5 -299.5q0 -173 -136 -353t-544 -507h359q155 0 208 43t99 170h25l-76 -354h-795z" />
    <glyph glyph-name="three" unicode="3" horiz-adv-x="1081" 
d="M586 745q168 -22 255 -112.5t87 -241.5q0 -179 -136.5 -301.5t-336.5 -122.5q-166 0 -274.5 85.5t-108.5 209.5q0 89 60 147t153 58h4l6 -8q-51 -43 -75.5 -91.5t-24.5 -105.5q0 -112 75.5 -185t194.5 -73q137 0 205.5 87.5t68.5 262.5q0 156 -53 257.5t-125 101.5
q-24 0 -82 -38t-102 -38q-32 0 -53 18.5t-21 46.5q0 31 26.5 52.5t63.5 21.5q24 0 65 -7t58 -7q86 0 142.5 81.5t56.5 209.5q0 149 -69.5 238t-184.5 89q-82 0 -132 -50t-50 -134q0 -68 34 -116t82 -50l2 -10q-26 -10 -44 -14t-34 -5q-75 0 -118 43t-43 117q0 110 93 183
t236 73q177 0 288.5 -97.5t111.5 -254.5q0 -123 -78 -205.5t-223 -114.5z" />
    <glyph glyph-name="four" unicode="4" horiz-adv-x="1081" 
d="M582 381v764l-461 -764h461zM741 381h21q75 0 107.5 38.5t45.5 147.5h29v-413h-29q-14 111 -47.5 148.5t-111.5 37.5h-15v-37q0 -162 39 -215.5t137 -58.5l1 -29h-515l1 29q99 5 138.5 59.5t39.5 214.5v37h-512v41l628 1036h43v-1036z" />
    <glyph glyph-name="five" unicode="5" horiz-adv-x="1081" 
d="M252 641l162 762q48 -20 99 -29.5t110 -9.5q82 0 144.5 15t115.5 48q-8 -101 -74.5 -153.5t-185.5 -52.5q-44 0 -90 7.5t-105 24.5l-104 -471q38 51 93.5 77t125.5 26q157 0 261.5 -113.5t104.5 -286.5q0 -217 -146.5 -367.5t-356.5 -150.5q-155 0 -258 78t-103 184
q0 48 22.5 75.5t61.5 27.5q47 0 69.5 -25.5t22.5 -77.5q0 -7 -1 -27.5t-1 -33.5q0 -85 43.5 -124.5t134.5 -39.5q148 0 239 137t91 361q0 158 -56.5 249t-154.5 91q-81 0 -134 -49.5t-87 -157.5z" />
    <glyph glyph-name="six" unicode="6" horiz-adv-x="1081" 
d="M559 2q111 0 175.5 113t64.5 311q0 203 -71.5 325.5t-186.5 122.5q-112 0 -176 -111.5t-64 -307.5q0 -205 71.5 -329t186.5 -124zM305 762q58 77 126.5 113t154.5 36q173 0 282 -126t109 -330q0 -214 -120 -351t-304 -137q-193 0 -314.5 167.5t-121.5 436.5q0 189 59 365
t162 297q77 91 169.5 137.5t194.5 46.5q103 0 167.5 -39.5t64.5 -101.5q0 -37 -21.5 -59.5t-58.5 -22.5q-38 0 -61.5 25.5t-32.5 74.5q-8 47 -31 64.5t-74 17.5q-124 0 -219 -164.5t-131 -449.5z" />
    <glyph glyph-name="seven" unicode="7" horiz-adv-x="1081" 
d="M899 1241h-317q-181 0 -263 -45t-126 -160h-29l98 400h35q0 -29 14.5 -40.5t69.5 -11.5h27h581v-14l-501 -1238q-4 -9 -9 -22q-57 -145 -135 -145q-38 0 -62 24.5t-24 61.5q0 35 49 123q7 12 10 18z" />
    <glyph glyph-name="eight" unicode="8" horiz-adv-x="1081" 
d="M621 786q79 68 116 145.5t37 174.5q0 126 -64 200t-173 74q-101 0 -162.5 -69.5t-61.5 -184.5q0 -106 65.5 -180.5t242.5 -159.5zM459 680q-102 -58 -150.5 -140t-48.5 -194q0 -154 79 -248t208 -94q115 0 188.5 79.5t73.5 205.5q0 122 -77 209.5t-273 181.5zM420 702
q-132 72 -195 160t-63 199q0 154 107 255t270 101q171 0 276 -90.5t105 -234.5q0 -95 -55 -167.5t-203 -162.5q159 -82 231 -176.5t72 -220.5q0 -175 -121 -287.5t-312 -112.5q-181 0 -302 108t-121 265q0 124 81 219t230 145z" />
    <glyph glyph-name="nine" unicode="9" horiz-adv-x="1081" 
d="M514 1382q-111 0 -175.5 -113t-64.5 -311q0 -203 72 -326.5t186 -123.5q111 0 175.5 112.5t64.5 309.5q0 205 -71.5 328.5t-186.5 123.5zM772 623q-57 -76 -126 -113t-154 -37q-173 0 -282.5 127t-109.5 330q0 210 119.5 348.5t292.5 138.5q203 0 326 -165t123 -439
q0 -189 -59.5 -365t-162.5 -296q-79 -94 -172 -139.5t-205 -45.5q-97 0 -158 40.5t-61 103.5q0 34 22 56.5t56 22.5q35 0 55.5 -20t36.5 -76q15 -51 37 -68.5t66 -17.5q128 0 223 162.5t133 452.5z" />
    <glyph glyph-name="colon" unicode=":" horiz-adv-x="598" 
d="M299 -16q-48 0 -84.5 35.5t-36.5 82.5q0 50 36 85.5t85 35.5t84 -35.5t35 -85.5q0 -49 -35 -83.5t-84 -34.5zM299 653q-48 0 -84.5 36t-36.5 83q0 49 36 84t85 35t84 -35t35 -84t-35.5 -84t-83.5 -35z" />
    <glyph glyph-name="semicolon" unicode=";" horiz-adv-x="598" 
d="M332 4q-18 -9 -32.5 -12.5t-29.5 -3.5q-43 0 -71.5 30.5t-28.5 77.5q0 53 35 89t84 36q58 0 95.5 -47.5t37.5 -124.5q0 -112 -68 -206t-194 -156l-13 24q88 59 135 133.5t50 159.5zM295 653q-48 0 -84.5 36t-36.5 83q0 49 35.5 84t85.5 35q49 0 84 -35t35 -84t-35.5 -84
t-83.5 -35z" />
    <glyph glyph-name="less" unicode="&#x3c;" horiz-adv-x="1706" 
d="M1442 1145v-127l-1000 -408l1000 -405v-129l-1178 483v103z" />
    <glyph glyph-name="equal" unicode="=" horiz-adv-x="1706" 
d="M254 477h1198v-117h-1198v117zM254 860h1198v-117h-1198v117z" />
    <glyph glyph-name="greater" unicode="&#x3e;" horiz-adv-x="1706" 
d="M264 1145l1178 -483v-103l-1178 -483v129l1000 405l-1000 408v127z" />
    <glyph glyph-name="question" unicode="?" horiz-adv-x="995" 
d="M293 326v526h44q4 -106 54.5 -168.5t130.5 -62.5q83 0 125.5 82t42.5 243q0 200 -64 316t-171 116q-46 0 -68.5 -18.5t-34.5 -69.5q-20 -84 -41 -107.5t-59 -23.5q-35 0 -57.5 20.5t-22.5 49.5q0 84 73 136t193 52q197 0 321 -134.5t124 -346.5q0 -160 -91.5 -262.5
t-230.5 -102.5q-64 0 -119 27t-104 84v-356h-45zM315 -16q-47 0 -82.5 35.5t-35.5 82.5q0 50 34.5 84.5t83.5 34.5q50 0 85.5 -35t35.5 -84t-35.5 -83.5t-85.5 -34.5z" />
    <glyph glyph-name="at" unicode="@" horiz-adv-x="2019" 
d="M1190 336q-62 -106 -139 -158.5t-170 -52.5q-125 0 -201 92t-76 244q0 108 49 216t138 193q65 64 144 100t155 36q87 0 143 -49.5t78 -145.5l53 180h143l-170 -610q0 -2 -1 -5q-17 -59 -17 -104q0 -47 25.5 -74.5t68.5 -27.5q34 0 79 17.5t85 48.5q122 90 187 231t65 315
q0 140 -50 252t-153 203q-90 79 -216 122.5t-267 43.5q-187 0 -341.5 -58.5t-275.5 -175.5q-130 -126 -197 -293.5t-67 -369.5q0 -175 57 -304.5t181 -234.5q114 -97 261 -146.5t320 -49.5q163 0 317.5 52t295.5 154l30 -36q-148 -110 -313 -166t-342 -56q-187 0 -342 46.5
t-274 138.5q-151 113 -229.5 274.5t-78.5 358.5q0 204 86 381t250 313q131 110 291 165.5t344 55.5q347 0 553.5 -187t206.5 -499q0 -157 -58 -297t-163 -236q-57 -52 -123.5 -80t-134.5 -28q-97 0 -149 52.5t-58 158.5zM1098 965q-54 0 -99 -31t-92 -100
q-72 -108 -114.5 -234t-42.5 -225q0 -93 40.5 -147t108.5 -54q66 0 126 44.5t116 133.5q57 94 91 202.5t34 197.5q0 93 -47.5 153t-120.5 60z" />
    <glyph glyph-name="A" unicode="A" horiz-adv-x="1356" 
d="M362 596h439l-217 547zM346 549l-43 -103q-36 -87 -55 -157t-19 -115q0 -64 42 -98.5t137 -46.5v-29h-447v29q131 7 326 486q21 52 32 79l334 823h39l428 -1042q7 -16 19 -46q122 -297 245 -300v-29h-583v28q84 5 125 32t41 79q0 22 -10 55.5t-42 116.5l-92 238h-477z
" />
    <glyph glyph-name="B" unicode="B" horiz-adv-x="1389" 
d="M502 715v-328q0 -227 41 -285.5t166 -58.5q173 0 262.5 85.5t89.5 250.5q0 169 -106.5 252.5t-321.5 83.5h-131zM86 0v29h16q108 0 145.5 72.5t37.5 392.5v43v354q0 319 -37.5 392t-145.5 73h-16v28h602q251 0 369.5 -75.5t118.5 -235.5q0 -116 -80 -196.5t-228 -112.5
q218 -31 325 -128.5t107 -264.5q0 -107 -51 -191.5t-141 -126.5q-62 -28 -139 -40.5t-254 -12.5h-629zM502 1341v-583h78q193 0 277.5 65.5t84.5 212.5q0 153 -84 229t-254 76h-102z" />
    <glyph glyph-name="C" unicode="C" horiz-adv-x="1419" 
d="M1313 406q-13 -202 -156.5 -320.5t-378.5 -118.5q-310 0 -493 183.5t-183 498.5q0 343 198.5 555.5t512.5 212.5q113 0 243 -42t150 -42q19 0 34 12t26 35h30l11 -440h-27q-58 209 -172 321.5t-268 112.5q-219 0 -351.5 -192.5t-132.5 -509.5q0 -296 132.5 -465.5
t361.5 -169.5q179 0 295 100t131 269h37z" />
    <glyph glyph-name="D" unicode="D" horiz-adv-x="1565" 
d="M86 0v29h16q108 0 145.5 72.5t37.5 392.5v43v354q0 319 -37.5 392t-145.5 73h-16v28h584q197 0 319 -27t209 -87q129 -89 203 -243t74 -335q0 -179 -72 -332t-199 -243q-88 -63 -207 -90t-327 -27h-584zM502 1341v-954q0 -224 41 -284t159 -60q229 0 373 179.5t144 469.5
q0 306 -153 477.5t-425 171.5h-139z" />
    <glyph glyph-name="E" unicode="E" horiz-adv-x="1356" 
d="M86 0v29h16q108 0 145.5 72.5t37.5 392.5v43v354q0 319 -37.5 392t-145.5 73h-16v28h1061l14 -331h-26q-34 159 -129.5 223.5t-303.5 64.5h-200v-587q194 3 262.5 54t73.5 187h28v-546h-28q-11 153 -80.5 209t-255.5 59v-299q0 -263 48 -320t247 -57q209 0 318 90.5
t136 286.5h29l-14 -418h-1180z" />
    <glyph glyph-name="F" unicode="F" horiz-adv-x="1143" 
d="M502 537q0 -360 45 -434t180 -74h16v-29h-657v29h16q108 0 145.5 72.5t37.5 392.5v43v354q0 319 -37.5 392t-145.5 73h-16v28h1038l15 -331h-29q-34 159 -129 223.5t-303 64.5h-176v-587q181 6 244 56t69 185h29v-546h-29q-11 151 -75.5 206.5t-237.5 61.5v-180z" />
    <glyph glyph-name="G" unicode="G" horiz-adv-x="1546" 
d="M1337 104l-65 7q-152 -80 -266.5 -112t-235.5 -32q-305 0 -486.5 189.5t-181.5 509.5q0 330 200.5 540.5t510.5 210.5q113 0 243 -42t150 -42q19 0 34 12t26 35h30l11 -440h-27q-58 209 -172 321.5t-268 112.5q-222 0 -353 -195t-131 -526q0 -291 130 -467t341 -176
q143 0 224.5 78t81.5 215q0 106 -48.5 151t-166.5 50v26h616v-26q-128 -10 -164.5 -48t-36.5 -190q0 -34 3 -125q1 -25 1 -37z" />
    <glyph glyph-name="H" unicode="H" horiz-adv-x="1698" 
d="M1194 696h-692v-182q0 -337 37.5 -411t146.5 -74h16v-29h-616v29h16q108 0 145.5 72.5t37.5 392.5v43v354q0 319 -37.5 392t-145.5 73h-16v28h616v-28h-16q-109 0 -146.5 -74.5t-37.5 -411.5v-22v-105h692v148q0 319 -37.5 392t-144.5 73h-17v28h617v-28h-17
q-107 0 -144.5 -73t-37.5 -392v-43v-354q0 -320 37.5 -392.5t144.5 -72.5h17v-29h-617v29h17q107 0 144.5 72.5t37.5 392.5v43v159z" />
    <glyph glyph-name="I" unicode="I" horiz-adv-x="807" 
d="M717 1384v-28h-17q-108 0 -146 -74.5t-38 -411.5v-22v-334q0 -337 38 -411t146 -74h17v-29h-627v29h16q108 0 145.5 72.5t37.5 392.5v43v354q0 319 -37.5 392t-145.5 73h-16v28h627z" />
    <glyph glyph-name="J" unicode="J" horiz-adv-x="729" 
d="M270 848v43q0 319 -37 392t-145 73h-16v28h616v-28h-16q-109 0 -147 -74.5t-38 -411.5v-22v-836q0 -188 -86.5 -265t-287.5 -77q-139 0 -221 51t-82 134q0 41 25.5 67.5t66.5 26.5q39 0 64.5 -23t37.5 -71q0 -1 1 -3q39 -139 138 -139q72 0 99.5 47t27.5 195v893z" />
    <glyph glyph-name="K" unicode="K" horiz-adv-x="1421" 
d="M502 537v-23q0 -337 37.5 -411t146.5 -74h16v-29h-616v29h16q108 0 145.5 72.5t37.5 392.5v43v354q0 319 -37.5 392t-145.5 73h-16v28h616v-28h-16q-109 0 -146.5 -74.5t-37.5 -411.5v-22v-156l31 29q528 480 528 565q0 34 -27.5 52t-81.5 18h-24v28h424v-28
q-102 -6 -408 -300l-29 -28l-153 -149l424 -596q85 -120 162.5 -187t130.5 -67v-29h-627v28q78 5 116 26.5t38 62.5q0 23 -13 52.5t-41 68.5l-352 495l-98 -92v-104z" />
    <glyph glyph-name="L" unicode="L" horiz-adv-x="1298" 
d="M502 418q0 -257 53.5 -317t232.5 -60q217 0 326 89t137 288h29l-14 -418h-1180v29h16q108 0 145.5 72.5t37.5 392.5v43v354q0 319 -37.5 392t-145.5 73h-16v28h616v-28h-16q-109 0 -146.5 -74.5t-37.5 -411.5v-22v-430z" />
    <glyph glyph-name="M" unicode="M" horiz-adv-x="1872" 
d="M317 1253v-856q0 -219 51 -291.5t187 -76.5v-29h-516v29q135 4 185 75t50 293v451q0 186 -6 296.5t-18 145.5q-12 33 -52 48.5t-122 17.5v28h418l444 -1089l446 1089h404v-28q-84 -2 -123.5 -16.5t-50.5 -47.5q-12 -40 -19.5 -158t-7.5 -286v-311q0 -179 7 -293.5
t20 -151.5q11 -32 50.5 -47t123.5 -17v-28h-617l1 29q83 1 122.5 16t51.5 47q11 38 17.5 154.5t6.5 290.5v716l-510 -1243h-35z" />
    <glyph glyph-name="N" unicode="N" horiz-adv-x="1567" 
d="M1282 354v633q0 212 -45.5 289t-161.5 80v28h455v-28q-115 -3 -160 -80t-45 -289v-1001h-29l-979 1224v-813q0 -214 45 -290t160 -79v-28h-452v29q115 3 159.5 79.5t44.5 288.5v602q0 215 -43 285t-155 72v28h379z" />
    <glyph glyph-name="O" unicode="O" horiz-adv-x="1659" 
d="M829 10q217 0 350.5 186t133.5 496q0 315 -130.5 498.5t-351.5 183.5q-215 0 -350 -186t-135 -492q0 -307 134.5 -496.5t348.5 -189.5zM90 686q0 126 41.5 241.5t120.5 211.5q110 135 262 206.5t328 71.5q137 0 267.5 -48.5t231.5 -137.5q114 -100 171 -235t57 -306
q0 -146 -56 -282t-155 -232q-99 -95 -241 -152t-283 -57q-155 0 -288 50.5t-237 148.5q-113 105 -166 231.5t-53 288.5z" />
    <glyph glyph-name="P" unicode="P" horiz-adv-x="1200" 
d="M502 537v-31q0 -335 42.5 -406t170.5 -71h16v-29h-645v29h16q108 0 145.5 72.5t37.5 392.5v43v354q0 319 -37.5 392t-145.5 73h-16v28h629q223 0 346 -91t123 -255q0 -176 -129 -268t-375 -92h-178v-141zM502 721h102q168 0 254 74t86 219q0 161 -95.5 244t-281.5 83h-65
v-620z" />
    <glyph glyph-name="Q" unicode="Q" horiz-adv-x="1659" 
d="M889 -27q-30 -4 -49.5 -6t-34.5 -2q-94 0 -195.5 31t-191.5 88q-163 104 -245.5 255.5t-82.5 346.5q0 125 41 239.5t121 211.5q111 135 263 207.5t327 72.5q137 0 267.5 -48.5t231.5 -137.5q114 -100 171 -235t57 -306q0 -231 -123.5 -411t-335.5 -256q63 -55 125.5 -79
t138.5 -24q143 0 221.5 68.5t85.5 199.5h29q0 -228 -101 -347.5t-294 -119.5q-120 0 -219.5 59t-206.5 193zM860 12q-51 84 -98.5 121t-102.5 37q-28 0 -58.5 -12t-61.5 -35q54 -55 122 -84t142 -29q17 0 30 0.5t27 1.5zM1047 74q133 86 199.5 240t66.5 378
q0 315 -130.5 498.5t-351.5 183.5q-215 0 -350 -186t-135 -492q0 -175 41.5 -313t122.5 -231q71 45 124 64.5t103 19.5q77 0 154 -40.5t156 -121.5z" />
    <glyph glyph-name="R" unicode="R" horiz-adv-x="1432" 
d="M502 717h90q174 0 259 73t85 222q0 167 -81 248t-249 81h-104v-624zM502 537v-23q0 -337 37.5 -411t146.5 -74h16v-29h-616v29h16q108 0 145.5 72.5t37.5 392.5v43v354q0 319 -37.5 392t-145.5 73h-16v28h592q250 0 368.5 -86t118.5 -266q0 -139 -83 -225.5t-238 -108.5
q163 -7 276 -256q44 -98 74 -151q73 -132 152 -197t163 -65h9v-29h-394q-84 131 -161 294t-80 168q-72 135 -130.5 173.5t-177.5 38.5h-73v-137z" />
    <glyph glyph-name="S" unicode="S" horiz-adv-x="1139" 
d="M137 -10l-18 434h26q37 -196 145 -305t265 -109q117 0 187.5 76t70.5 201q0 105 -60 178t-218 149q-239 114 -311 198.5t-72 211.5q0 169 108.5 281t269.5 112q105 0 198.5 -38t94.5 -38q23 0 33.5 11.5t16.5 42.5h30l19 -385h-25q-60 190 -145 277t-209 87
q-94 0 -154.5 -61t-60.5 -158q0 -89 52 -149.5t214 -139.5q40 -20 131.5 -62.5t122.5 -64.5q94 -67 135 -148.5t41 -199.5q0 -186 -127.5 -306t-329.5 -120q-102 0 -215.5 41t-126.5 41q-23 0 -36.5 -14t-18.5 -43h-33z" />
    <glyph glyph-name="T" unicode="T" horiz-adv-x="1421" 
d="M819 537v-43q0 -320 37.5 -392.5t144.5 -72.5h17v-29h-615v29h17q107 0 144.5 72.5t37.5 392.5v43v804h-96q-215 0 -306 -73t-126 -262h-27l23 378h1282l22 -378h-26q-36 189 -127.5 262t-305.5 73h-96v-804z" />
    <glyph glyph-name="U" unicode="U" horiz-adv-x="1507" 
d="M1233 987q0 212 -45.5 289t-161.5 80v28h453l-1 -28q-114 -3 -159 -80t-45 -289v-436q0 -329 -118 -456.5t-406 -127.5q-153 0 -258.5 34.5t-169.5 104.5q-47 52 -65.5 131t-18.5 279v354q0 337 -38 411.5t-147 74.5h-16v28h616v-28h-16q-108 0 -145 -73t-37 -392v-43
v-330q0 -264 87 -366.5t294 -102.5q215 0 306 107.5t91 384.5v446z" />
    <glyph glyph-name="V" unicode="V" horiz-adv-x="1319" 
d="M637 -29l-436 1147q-55 143 -102.5 188.5t-129.5 49.5v28h604v-28q-86 -7 -124.5 -34t-38.5 -81q0 -18 10.5 -63.5t28.5 -94.5l292 -821l260 668q34 87 52 161t18 119q0 77 -36.5 109.5t-126.5 36.5l-1 28h463v-28q-89 -14 -150.5 -85.5t-148.5 -291.5l-395 -1008h-39z
" />
    <glyph glyph-name="W" unicode="W" horiz-adv-x="2042" 
d="M682 -29h-37l-436 1147q-54 141 -102.5 187.5t-131.5 50.5v28h598v-28q-86 -7 -124.5 -34t-38.5 -81q0 -19 10.5 -64.5t28.5 -93.5l290 -800l236 719l1 4q28 90 28 141q0 108 -45 157.5t-144 51.5v28h571v-28q-99 -10 -132 -38.5t-33 -100.5q0 -29 5.5 -65t14.5 -69
l232 -821l247 668q35 92 52.5 163.5t17.5 116.5q0 77 -36.5 109.5t-127.5 36.5v28h461v-28q-91 -13 -154.5 -90.5t-142.5 -286.5l-385 -1008h-47l-324 1080z" />
    <glyph glyph-name="X" unicode="X" horiz-adv-x="1403" 
d="M768 0v28q99 6 133.5 25t34.5 64q0 33 -23.5 82.5t-83.5 140.5l-194 291l-170 -215q-78 -99 -117 -165.5t-39 -103.5q0 -46 36 -74t116 -44v-29h-496v28q93 12 202.5 109.5t334.5 386.5l110 144l-331 506q-67 102 -124.5 140t-142.5 42v28h648l-1 -28q-81 -5 -113 -23.5
t-32 -58.5q0 -58 104 -222q3 -5 5 -8l125 -200l149 190q72 93 101.5 146.5t29.5 87.5q0 40 -35 64t-96 24h-8v28h457v-28q-151 -4 -448 -383l-9 -12l-117 -150l244 -377q4 -6 13 -20q246 -381 427 -385v-29h-690z" />
    <glyph glyph-name="Y" unicode="Y" horiz-adv-x="1247" 
d="M750 397q0 -231 37.5 -299.5t144.5 -68.5h16v-29h-616v29h16q107 0 144.5 68.5t37.5 299.5v189l-307 534q-6 11 -17 30q-114 198 -243 206v28h594v-28q-79 -4 -112 -23.5t-33 -62.5q0 -20 10.5 -54.5t26.5 -62.5l276 -494l211 367q41 70 65.5 133.5t24.5 95.5
q0 50 -37.5 74.5t-113.5 26.5l-1 28h441v-28q-139 -6 -331 -338l-7 -12l-227 -394v-215z" />
    <glyph glyph-name="Z" unicode="Z" horiz-adv-x="1395" 
d="M80 0v12l864 1329h-319q-235 0 -340 -72.5t-144 -252.5h-26l24 368h1071v-12l-852 -1329h308q286 0 419 86.5t195 306.5h29l-23 -436h-1206z" />
    <glyph glyph-name="bracketleft" unicode="[" horiz-adv-x="729" 
d="M272 -274v1658h365v-79h-234v-1500h234v-79h-365z" />
    <glyph glyph-name="backslash" unicode="\" horiz-adv-x="664" 
d="M74 1417l682 -1607h-94l-680 1607h92z" />
    <glyph glyph-name="bracketright" unicode="]" horiz-adv-x="729" 
d="M457 1384v-1658h-365v79h236v1500h-236v79h365z" />
    <glyph glyph-name="asciicircum" unicode="^" horiz-adv-x="2048" 
d="M934 1462h178l520 -565h-92l-518 436l-520 -436h-90z" />
    <glyph glyph-name="underscore" unicode="_" 
d="M0 -365h1024v-118h-1024v118z" />
    <glyph glyph-name="grave" unicode="`" 
d="M399 1300l289 -299h-67l-330 207q-31 21 -46.5 41t-15.5 41q0 30 21 50t51 20q21 0 42 -12t56 -48z" />
    <glyph glyph-name="a" unicode="a" horiz-adv-x="930" 
d="M567 492q-38 -23 -107 -59q-227 -117 -227 -261q0 -72 39 -115t105 -43q98 0 144 68t46 213v197zM561 78q-39 -53 -99 -80t-140 -27q-120 0 -186 59.5t-66 166.5q0 166 311 250l14 4q99 25 134.5 57t35.5 86v74q0 92 -42.5 139t-125.5 47q-59 0 -86.5 -20t-38.5 -74
q-12 -67 -30.5 -88t-55.5 -21q-36 0 -56.5 19.5t-20.5 52.5q0 76 81 122t218 46q167 0 240 -58t73 -192v-455q0 -91 18 -127t62 -36q30 0 60 15.5t61 47.5l22 -18q-29 -46 -82 -71.5t-117 -25.5q-81 0 -126.5 26.5t-57.5 80.5z" />
    <glyph glyph-name="b" unicode="b" horiz-adv-x="1034" 
d="M141 -29v1209q0 99 -30 136.5t-113 43.5v22q64 7 134.5 16t166.5 23v-633q58 54 115 78.5t123 24.5q181 0 301 -132t120 -329q0 -209 -115 -334t-306 -125q-98 0 -186 35t-93 35q-27 0 -50.5 -18t-41.5 -52h-25zM299 561v-264q0 -161 47.5 -225t157.5 -64
q132 0 200 106.5t68 313.5q0 204 -67.5 313t-192.5 109q-104 0 -158.5 -74t-54.5 -215z" />
    <glyph glyph-name="c" unicode="c" horiz-adv-x="846" 
d="M817 213q-18 -115 -102 -178.5t-217 -63.5q-193 0 -310.5 120t-117.5 317q0 212 123 347.5t313 135.5q120 0 202.5 -49t82.5 -115q0 -39 -20.5 -60.5t-57.5 -21.5q-38 0 -58 21.5t-30 74.5q-13 68 -39 90.5t-78 22.5q-116 0 -182 -114.5t-66 -317.5q0 -188 77 -291.5
t216 -103.5q93 0 152.5 48.5t76.5 137.5h35z" />
    <glyph glyph-name="d" unicode="d" horiz-adv-x="1096" 
d="M735 1180q0 98 -30.5 136t-114.5 44v22q86 9 160.5 18.5t142.5 20.5v-1208q0 -101 27.5 -137.5t103.5 -42.5v-23q-81 -9 -151.5 -18.5t-137.5 -20.5v109q-49 -57 -112 -83t-152 -26q-167 0 -281 128t-114 323q0 203 120 336t302 133q66 0 123.5 -25t113.5 -78v392z
M735 301v262q0 139 -55 213t-158 74q-125 0 -192.5 -108t-67.5 -310q0 -205 68.5 -311.5t199.5 -106.5q97 0 151 75.5t54 211.5z" />
    <glyph glyph-name="e" unicode="e" horiz-adv-x="944" 
d="M279 612l438 1q-8 113 -62.5 177t-142.5 64q-92 0 -154.5 -65.5t-78.5 -176.5zM268 573q-4 -29 -6 -54.5t-2 -45.5q0 -208 84.5 -329t226.5 -121q99 0 171 50.5t106 143.5h41q-36 -117 -133.5 -181.5t-239.5 -64.5q-206 0 -326 119t-120 322q0 211 129.5 345t328.5 134
q150 0 243 -86t93 -223v-9h-596z" />
    <glyph glyph-name="f" unicode="f" horiz-adv-x="612" 
d="M217 825h-141v37h141v228q0 167 71.5 242t229.5 75q102 0 164.5 -35.5t62.5 -91.5q0 -33 -19.5 -51.5t-55.5 -18.5q-32 0 -49 14t-29 62q-11 44 -33.5 64t-60.5 20q-69 0 -96 -50t-27 -216v-242h209v-37h-209v-518q0 -201 28.5 -239.5t131.5 -38.5h10v-29h-475v29h8
q88 0 113.5 37.5t25.5 240.5v518z" />
    <glyph glyph-name="g" unicode="g" horiz-adv-x="877" 
d="M434 344q72 0 110 66t38 190q0 125 -38.5 191.5t-109.5 66.5q-72 0 -111.5 -67.5t-39.5 -190.5q0 -122 39.5 -189t111.5 -67zM350 326q-113 32 -168 96t-55 164q0 128 88.5 216.5t212.5 88.5q67 0 123 -18.5t98 -55.5q37 38 78.5 57t89.5 19q46 0 78.5 -23.5t32.5 -54.5
q0 -24 -14.5 -37.5t-41.5 -13.5q-30 0 -61 40t-57 40q-14 0 -33 -10.5t-49 -34.5q36 -41 52.5 -91t16.5 -116q0 -118 -71 -193t-199 -92q-27 -3 -80 -8q-188 -17 -188 -98q0 -36 29 -52t96 -16q21 0 84 2t104 2q182 0 266 -65.5t84 -206.5q0 -137 -119 -221t-313 -84
q-184 0 -285.5 64t-101.5 179q0 66 36.5 110t90.5 44q47 0 70.5 -21.5t23.5 -64.5q0 -6 -0.5 -11t-1.5 -9l-8 -1q-8 19 -22.5 27t-38.5 8q-44 0 -69.5 -29t-25.5 -79q0 -80 78.5 -129t208.5 -49q156 0 247 61t91 164q0 91 -64 126.5t-280 35.5q-144 0 -207 36t-63 117
q0 83 60 130t177 57z" />
    <glyph glyph-name="h" unicode="h" horiz-adv-x="1124" 
d="M360 307q0 -200 26 -239t116 -39h8v-29h-455v29h8q89 0 114.5 37.5t25.5 240.5v873q0 100 -31 137t-117 43v22q66 6 136.5 15t168.5 24v-643q65 60 137 87.5t165 27.5q146 0 204 -58.5t58 -230.5v-297q0 -198 25.5 -238t115.5 -40h8v-29h-455v29h9q88 0 113.5 39
t25.5 239v293q0 121 -46.5 182.5t-137.5 61.5q-50 0 -97 -22.5t-79 -61.5q-25 -29 -35.5 -67t-10.5 -109v-52v-225z" />
    <glyph glyph-name="i" unicode="i" horiz-adv-x="578" 
d="M375 307q0 -200 25.5 -239t115.5 -39h8v-29h-454v29h8q88 0 113.5 37.5t25.5 240.5v324q0 101 -31 138.5t-116 43.5v23q84 13 159 29t146 36v-594zM199 1313q0 38 28 66t66 28t66 -28.5t28 -65.5q0 -42 -26.5 -68t-67.5 -26t-67.5 26.5t-26.5 67.5z" />
    <glyph glyph-name="j" unicode="j" horiz-adv-x="483" 
d="M184 631q0 99 -30.5 137.5t-114.5 44.5v23q83 13 158 29.5t145 35.5v-993q0 -179 -73.5 -263.5t-227.5 -84.5q-95 0 -157 39t-62 94q0 37 16 57.5t45 20.5t46.5 -16.5t31.5 -57.5q23 -64 43.5 -82t54.5 -18q66 0 95.5 60t29.5 198v776zM166 1313q0 38 27.5 66t64.5 28
q38 0 67 -28.5t29 -65.5q0 -41 -27 -67.5t-69 -26.5q-40 0 -66 26.5t-26 67.5z" />
    <glyph glyph-name="k" unicode="k" horiz-adv-x="1053" 
d="M360 436q154 135 224.5 215t70.5 119q0 31 -23.5 45.5t-80.5 18.5v28h346v-28q-50 -3 -123 -58t-258 -244l221 -235q150 -162 221 -215t123 -53h9v-29h-494v28q54 4 80 18.5t26 41.5q0 19 -14 42t-45 56l-227 248l-56 -47v-80q0 -200 26 -239t116 -39h8v-29h-455v29h8
q89 0 114.5 37.5t25.5 240.5v873q0 100 -31 137t-117 43v22q66 6 136.5 15t168.5 24v-985z" />
    <glyph glyph-name="l" unicode="l" horiz-adv-x="563" 
d="M360 307q0 -200 26 -239t116 -39h8v-29h-455v29h8q89 0 114.5 37.5t25.5 240.5v873q0 100 -31 137t-117 43v22q66 6 136.5 15t168.5 24v-1114z" />
    <glyph glyph-name="m" unicode="m" horiz-adv-x="1663" 
d="M903 768q74 66 146 95.5t157 29.5q142 0 200 -60.5t58 -228.5v-297q0 -198 26 -238t116 -40h8v-29h-455v29h8q89 0 114.5 39t25.5 239v293q0 116 -46 180t-128 64q-40 0 -81.5 -18t-72.5 -50q-32 -32 -45.5 -72.5t-13.5 -123.5v-48v-225q0 -200 25.5 -239t115.5 -39h8
v-29h-455v29h9q88 0 113.5 37.5t25.5 240.5v293q0 116 -45.5 180t-128.5 64q-40 0 -81.5 -18t-72.5 -50q-32 -32 -45.5 -72.5t-13.5 -123.5v-48v-225q0 -200 25.5 -239t115.5 -39h8v-29h-454v29h8q88 0 113.5 37.5t25.5 240.5v324q0 101 -31 138.5t-116 43.5v23
q78 11 146.5 27t133.5 38l12 -4l13 -119q62 58 134 86.5t155 28.5q91 0 155 -33.5t84 -91.5z" />
    <glyph glyph-name="n" unicode="n" horiz-adv-x="1139" 
d="M375 307q0 -200 25.5 -239t115.5 -39h8v-29h-454v29h8q88 0 113.5 37.5t25.5 240.5v324q0 101 -31 138.5t-116 43.5v23q78 11 146.5 27t133.5 38l12 -4l13 -119q64 60 136 87.5t165 27.5q146 0 204 -58.5t58 -230.5v-297q0 -198 25.5 -238t115.5 -40h8v-29h-454v29h8
q89 0 114 39t25 239v293q0 121 -46.5 182.5t-137.5 61.5q-50 0 -96.5 -22.5t-79.5 -61.5q-24 -29 -34.5 -67t-10.5 -109v-52v-225z" />
    <glyph glyph-name="o" unicode="o" horiz-adv-x="1057" 
d="M528 854q-128 0 -198 -109.5t-70 -312.5q0 -202 70 -312t198 -110q129 0 199 110t70 312q0 203 -70 312.5t-199 109.5zM528 891q189 0 323 -133t134 -326t-134.5 -327t-322.5 -134t-322 134t-134 327t134 326t322 133z" />
    <glyph glyph-name="p" unicode="p" horiz-adv-x="1096" 
d="M360 80v-197q0 -192 31.5 -232t151.5 -40v-29h-488v29h8q89 0 114.5 37.5t25.5 240.5v742q0 101 -31 138.5t-117 43.5v22q78 12 146.5 28t134.5 38l12 -4l12 -109q58 54 115 78.5t123 24.5q181 0 301.5 -132t120.5 -329q0 -202 -113 -330.5t-282 -128.5q-89 0 -152 26
t-113 83zM360 563v-262q0 -136 54 -211.5t151 -75.5q132 0 200.5 106.5t68.5 311.5q0 202 -67.5 310t-193.5 108q-102 0 -157.5 -74t-55.5 -213z" />
    <glyph glyph-name="q" unicode="q" horiz-adv-x="1034" 
d="M735 301v266q0 145 -53 217t-160 72q-125 0 -192.5 -109t-67.5 -313q0 -206 68 -313t200 -107q98 0 151.5 75t53.5 212zM893 -111v-6q0 -195 25.5 -233.5t113.5 -38.5h8v-29h-487v29h12q110 0 140 41.5t30 236.5v191q-49 -57 -112 -83t-152 -26q-170 0 -282.5 128.5
t-112.5 330.5t124 331.5t318 129.5q81 0 158.5 -31t83.5 -31q17 0 31.5 7t29.5 22l41 43h41q-5 -50 -7.5 -107t-2.5 -163v-742z" />
    <glyph glyph-name="r" unicode="r" horiz-adv-x="739" 
d="M375 307v-6q0 -190 28.5 -231t131.5 -41h12v-29h-477v29h8q88 0 113.5 37.5t25.5 240.5v324q0 101 -31 138.5t-116 43.5v23q78 11 146.5 27t133.5 38l12 -4q5 -39 7 -85t2 -101q45 90 106.5 135t136.5 45q71 0 110.5 -29t39.5 -80q0 -32 -21 -51.5t-55 -19.5
q-44 0 -82 57t-76 57q-61 0 -108 -101t-47 -247v-170z" />
    <glyph glyph-name="s" unicode="s" horiz-adv-x="793" 
d="M109 -14v299h18q40 -150 101 -212.5t165 -62.5q70 0 111 39.5t41 108.5q0 59 -33 102.5t-119 91.5q-159 89 -203.5 149.5t-44.5 145.5q0 104 69.5 174t170.5 70q57 0 117.5 -24.5t66.5 -24.5q16 0 26 8t17 27h19v-256h-19q-24 114 -79.5 172.5t-139.5 58.5
q-56 0 -92.5 -37t-36.5 -94q0 -56 31 -95t135 -96q163 -86 210.5 -149t47.5 -154q0 -115 -77.5 -185.5t-204.5 -70.5q-72 0 -142.5 29t-75.5 29q-16 0 -30.5 -10.5t-30.5 -32.5h-18z" />
    <glyph glyph-name="t" unicode="t" horiz-adv-x="649" 
d="M215 825h-123v37q90 15 144.5 70t91.5 168h32l-2 -238h240v-37h-240l-4 -530v-25q0 -141 31.5 -193t108.5 -52q46 0 81 21.5t66 70.5l23 -15q-33 -65 -91.5 -98t-140.5 -33q-124 0 -179.5 47.5t-55.5 153.5v12z" />
    <glyph glyph-name="u" unicode="u" horiz-adv-x="1124" 
d="M764 557q0 196 -25.5 236.5t-113.5 40.5h-11v28h306v-649q0 -100 27.5 -137t105.5 -43l-1 -23q-79 -9 -245 -32q-29 -5 -43 -7v113q-61 -58 -133.5 -85.5t-167.5 -27.5q-148 0 -206 58.5t-58 228.5v299q0 196 -25.5 236.5t-114.5 40.5h-10v28h307v-600
q0 -121 46.5 -182.5t138.5 -61.5q49 0 96 22.5t80 61.5q25 30 36 69.5t11 123.5v37v225z" />
    <glyph glyph-name="v" unicode="v" horiz-adv-x="915" 
d="M477 -29h-37l-256 641q-52 130 -95.5 175t-108.5 47v28h442v-28q-65 -7 -90 -26t-25 -58q0 -19 7 -46.5t20 -58.5l184 -477l176 430q18 43 26.5 78.5t8.5 64.5q0 47 -27.5 68t-93.5 25v28h314v-28q-54 -10 -93.5 -58t-93.5 -180z" />
    <glyph glyph-name="w" unicode="w" horiz-adv-x="1331" 
d="M907 -29h-35l-200 643l-213 -643h-29l-242 641q-46 126 -90.5 172t-113.5 50v28h438v-28q-65 -7 -90 -26t-25 -58q0 -18 6.5 -43t20.5 -62l162 -442l219 659h26l209 -669l154 405q19 49 28 83.5t9 57.5q0 47 -30.5 70t-92.5 25v28h313v-28q-54 -9 -97.5 -64t-88.5 -174z
" />
    <glyph glyph-name="x" unicode="x" horiz-adv-x="901" 
d="M487 0v29q65 7 85 19.5t20 37.5q0 13 -10 34.5t-31 51.5l-148 211l-67 -94q-48 -67 -64 -102t-16 -64q0 -45 32.5 -69.5t92.5 -24.5v-29h-397v29h8q61 0 122.5 50t153.5 181l113 158l-195 278q-3 5 -10 16q-74 110 -170 122v28h420v-28q-58 -10 -75 -22t-17 -36
q0 -13 10 -34t31 -52l104 -145l78 94q34 41 51 74.5t17 58.5q0 31 -20.5 44.5t-76.5 17.5v28h336v-28q-56 -4 -113 -43.5t-118 -116.5l-129 -164l225 -330q61 -88 102.5 -119.5t88.5 -31.5h8v-29h-441z" />
    <glyph glyph-name="y" unicode="y" horiz-adv-x="915" 
d="M410 -182q-67 -159 -115.5 -209.5t-116.5 -50.5q-41 0 -66.5 21.5t-25.5 53.5q0 26 21 45t51 19q16 0 47 -11.5t47 -11.5q25 0 45 18t43 64q44 91 60 138t16 81q0 23 -11.5 63.5t-33.5 96.5l-187 477q-49 127 -94 174.5t-110 47.5v28h442v-28q-65 -7 -90 -26t-25 -58
q0 -19 7 -46.5t20 -58.5l184 -477l176 430q18 43 26.5 78.5t8.5 64.5q0 47 -27.5 68t-93.5 25v28h314v-28q-52 -9 -91 -55t-96 -183z" />
    <glyph glyph-name="z" unicode="z" horiz-adv-x="909" 
d="M29 0v10l579 815h-194q-126 0 -189.5 -47.5t-87.5 -159.5h-24l30 244h658v-14l-574 -809h234q175 0 253 56.5t113 201.5h27l-31 -297h-794z" />
    <glyph glyph-name="braceleft" unicode="{" 
d="M846 1516v-51q-142 -2 -194 -55.5t-52 -209.5v-143q0 -226 -61 -308.5t-226 -113.5q165 -31 226 -113.5t61 -308.5v-143q0 -156 51.5 -208.5t194.5 -54.5v-51h-10q-217 0 -298 73.5t-81 272.5v213q0 158 -59 218t-222 73v60q165 15 223 74t58 216v213q0 200 81 273.5
t298 73.5h10z" />
    <glyph glyph-name="bar" unicode="|" 
d="M449 1565h126v-2048h-126v2048z" />
    <glyph glyph-name="braceright" unicode="}" 
d="M178 1516h10q216 0 297.5 -74t81.5 -273v-213q0 -157 58 -216t223 -74v-60q-163 -13 -222 -73t-59 -218v-213q0 -198 -81.5 -272t-297.5 -74h-10v51q143 2 194.5 54.5t51.5 208.5v143q0 226 61 308.5t226 113.5q-165 31 -226 113.5t-61 308.5v143q0 156 -52 209.5
t-194 55.5v51z" />
    <glyph glyph-name="asciitilde" unicode="~" horiz-adv-x="1706" 
d="M1530 758v-131q-101 -72 -197.5 -108t-189.5 -36q-43 0 -90.5 9t-100.5 26q-30 10 -87 31q-202 72 -302 72q-83 0 -173.5 -37.5t-211.5 -122.5v133q105 73 202 109t185 36q56 0 116.5 -12.5t174.5 -52.5q12 -4 35 -13q164 -59 254 -59q85 0 176 36.5t209 119.5z" />
    <glyph glyph-name="nonbreakingspace" unicode="&#xa0;" horiz-adv-x="1081" 
 />
    <glyph glyph-name="exclamdown" unicode="&#xa1;" horiz-adv-x="606" 
d="M303 1417q48 0 83.5 -35.5t35.5 -83.5t-35.5 -84t-83.5 -36q-50 0 -84.5 34.5t-34.5 85.5q0 50 35 84.5t84 34.5zM317 1075l86 -833q4 -43 6.5 -76t2.5 -51q0 -66 -27.5 -98.5t-81.5 -32.5q-55 0 -81.5 32t-26.5 99q0 14 1.5 36.5t8.5 90.5l84 833h28z" />
    <glyph glyph-name="cent" unicode="&#xa2;" horiz-adv-x="1081" 
d="M545 63v779q-88 -15 -141.5 -124t-53.5 -278q0 -161 46 -249.5t149 -127.5zM883 233q-17 -107 -93 -168.5t-194 -64.5v-170h-51v170q-175 14 -277 126.5t-102 291.5q0 192 102.5 317t276.5 144v131h51v-127q115 -6 188.5 -51.5t73.5 -106.5q0 -37 -19.5 -57.5
t-56.5 -20.5t-56 20.5t-28 71.5q-9 59 -30.5 79t-71.5 28v-793q5 0 14.5 -1t14.5 -1q93 0 152.5 47.5t76.5 134.5h29z" />
    <glyph glyph-name="sterling" unicode="&#xa3;" horiz-adv-x="1081" 
d="M295 111q-72 44 -120.5 64t-84.5 20q-48 0 -74 -25.5t-26 -71.5q0 -41 29 -66.5t77 -25.5q52 0 105.5 28t93.5 77zM344 76q-66 -56 -127 -82.5t-123 -26.5q-77 0 -122.5 35.5t-45.5 95.5q0 61 45 98t119 37q41 0 90.5 -13.5t145.5 -53.5q5 30 7.5 55t2.5 47
q0 60 -12.5 138.5t-36.5 177.5h-236v43h230q-13 63 -19 116.5t-6 108.5q0 240 127 402.5t309 162.5q131 0 216 -78t85 -192q0 -113 -62 -178.5t-167 -65.5q-77 0 -126 45t-56 123l30 8q12 -66 48 -102.5t90 -36.5q68 0 110.5 56t42.5 149q0 111 -55.5 174t-153.5 63
q-130 0 -198 -110t-68 -322q0 -40 4 -107t17 -216h319v-43h-313q6 -56 9 -102.5t3 -86.5q0 -66 -19.5 -128.5t-60.5 -125.5q72 -25 137.5 -37t128.5 -12q143 0 254 70.5t154 187.5l20 -2q-26 -187 -115 -284t-235 -97q-91 0 -188 27.5t-199 81.5z" />
    <glyph glyph-name="currency" unicode="&#xa4;" horiz-adv-x="1241" 
d="M623 1200q-130 0 -222 -92t-92 -221q0 -131 91.5 -223.5t222.5 -92.5q129 0 221 93t92 223q0 129 -91.5 221t-221.5 92zM158 1419l207 -207q60 46 122.5 68.5t133.5 22.5t135.5 -22.5t124.5 -68.5l204 207l72 -73l-205 -205q43 -57 64.5 -121t21.5 -135t-21.5 -135.5
t-64.5 -120.5l205 -205l-72 -74l-204 207q-57 -44 -121.5 -66t-138.5 -22t-136.5 21.5t-119.5 66.5l-207 -207l-72 74l207 205q-44 58 -66 122t-22 134q0 69 22 133.5t66 122.5l-207 205z" />
    <glyph glyph-name="yen" unicode="&#xa5;" horiz-adv-x="1081" 
d="M631 268q0 -149 36.5 -194t147.5 -45h10v-29h-549v29h9q111 0 148.5 45.5t37.5 193.5v320h-432v55h403l-112 225h-291v56h264l-102 196q-74 142 -126 187t-126 49v28h520v-28q-77 -4 -109 -23.5t-32 -62.5q0 -18 10 -50.5t27 -66.5l241 -494l185 367q52 106 69 153t17 76
q0 49 -37 74t-111 27v28h428v-28q-81 -2 -157 -82.5t-171 -267.5l-43 -82h275v-56h-301l-113 -225h414v-55h-430v-320z" />
    <glyph glyph-name="brokenbar" unicode="&#xa6;" 
d="M449 408h126v-758h-126v758zM449 1432h126v-758h-126v758z" />
    <glyph glyph-name="section" unicode="&#xa7;" horiz-adv-x="1042" 
d="M252 692q0 -54 29.5 -103t126.5 -140q94 -89 146 -120.5t97 -31.5q61 0 102.5 39t41.5 98q0 52 -35 106.5t-121 133.5q-98 89 -148 118t-96 29q-59 0 -101 -38.5t-42 -90.5zM633 262q98 -80 144 -152.5t46 -144.5q0 -110 -92.5 -181t-238.5 -71q-131 0 -211 57t-80 148
q0 52 29.5 84.5t76.5 32.5q40 0 67 -27t27 -65q0 -28 -27.5 -67.5t-27.5 -53.5q0 -30 39.5 -51t97.5 -21q91 0 143 42t52 116q0 57 -35 110.5t-151 153.5l-183 154q-89 77 -131.5 146t-42.5 138q0 110 78 180t203 70q-108 95 -148.5 160t-40.5 135q0 114 88.5 188t227.5 74
q120 0 196 -56t76 -142q0 -52 -31 -85.5t-79 -33.5q-39 0 -66 24t-27 58q0 26 28 66t28 61q0 28 -38 48.5t-95 20.5q-73 0 -119.5 -45.5t-46.5 -118.5q0 -54 42 -113.5t152 -152.5l178 -149q91 -78 132.5 -150t41.5 -149q0 -104 -76.5 -168.5t-205.5 -69.5z" />
    <glyph glyph-name="dieresis" unicode="&#xa8;" 
d="M688 1257q40 0 69 -30t29 -70q0 -43 -28 -71.5t-70 -28.5t-71 29t-29 71q0 40 30 70t70 30zM336 1257q40 0 70 -30t30 -70q0 -42 -29 -71t-71 -29t-70 28.5t-28 71.5q0 40 29 70t69 30z" />
    <glyph glyph-name="copyright" unicode="&#xa9;" horiz-adv-x="1683" 
d="M1120 1096h35l2 -314h-41q-34 137 -104 206t-176 69q-123 0 -185.5 -94.5t-62.5 -278.5q0 -189 67 -285t199 -96q86 0 156 43t127 131l34 -24q-58 -105 -143 -157t-199 -52q-167 0 -285 123t-118 297q0 186 116 312t285 126q74 0 148 -34t82 -34q27 0 42 14.5t21 47.5z
M844 1303q-123 0 -237.5 -48.5t-200.5 -136.5q-88 -89 -134.5 -202.5t-46.5 -237.5q0 -125 47 -238.5t136 -201.5q88 -89 198.5 -135t235.5 -46q126 0 236.5 46t197.5 135q88 90 135 203t47 237t-47.5 240.5t-132.5 201.5q-86 87 -200.5 135t-233.5 48zM844 1382
q137 0 266.5 -53.5t226.5 -150.5q98 -97 152.5 -228.5t54.5 -271.5t-53 -268t-154 -230q-98 -100 -225 -152.5t-270 -52.5t-269 52.5t-227 152.5t-154 227t-53 271q0 140 53 268.5t152 229.5q98 99 228 152.5t272 53.5z" />
    <glyph glyph-name="ordfeminine" unicode="&#xaa;" horiz-adv-x="698" 
d="M426 1124q-28 -15 -80 -40q-170 -83 -170 -183q0 -51 29 -80.5t78 -29.5q73 0 108 47t35 149v137zM422 835q-30 -37 -75 -56t-105 -19q-90 0 -139.5 41.5t-49.5 116.5q0 117 238 176l6 2q75 18 101 40t26 60v51q0 65 -32 98t-93 33q-46 0 -66 -14t-28 -51
q-11 -49 -25 -62.5t-41 -13.5t-42 13t-15 36q0 54 60.5 86.5t162.5 32.5q125 0 180.5 -41t55.5 -135v-318q0 -63 13.5 -88.5t45.5 -25.5q23 0 46 10.5t46 32.5l17 -13q-22 -31 -62 -49t-88 -18q-61 0 -94.5 18.5t-42.5 56.5z" />
    <glyph glyph-name="guillemotleft" unicode="&#xab;" horiz-adv-x="829" 
d="M426 432l281 365h47l-144 -365l144 -366h-47zM72 432l278 365h47l-141 -365l141 -366h-47z" />
    <glyph glyph-name="logicalnot" unicode="&#xac;" horiz-adv-x="1706" 
d="M254 858h1198v-502h-115v385h-1083v117z" />
    <glyph glyph-name="sfthyphen" unicode="&#xad;" horiz-adv-x="639" 
d="M70 383v119h499v-119h-499z" />
    <glyph glyph-name="registered" unicode="&#xae;" horiz-adv-x="1683" 
d="M729 719q16 -1 32 -1.5t34 -0.5q112 0 173.5 45.5t61.5 128.5q0 73 -53 117.5t-143 44.5q-52 0 -78.5 -18.5t-26.5 -53.5v-262zM469 1092h393q147 0 232.5 -54.5t85.5 -146.5q0 -76 -69.5 -124t-217.5 -75q93 -29 142 -77.5t71 -133.5q6 -22 11 -63q13 -88 59 -88
q32 0 49.5 34t17.5 99h43v-12q0 -88 -40.5 -133.5t-119.5 -45.5q-46 0 -78.5 17t-48.5 49q-18 40 -21 113.5t-9 95.5q-20 68 -70.5 100.5t-136.5 32.5h-33v-248q0 -54 26.5 -75.5t98.5 -25.5v-40h-385v40q72 3 99.5 24.5t27.5 76.5v516q0 55 -26 76t-101 25v43zM844 1303
q-122 0 -236 -48t-202 -137t-134.5 -202.5t-46.5 -237.5q0 -127 46.5 -239t136.5 -201q88 -89 198.5 -135t235.5 -46q126 0 236.5 46t197.5 135q88 90 135 203t47 237t-47.5 241.5t-132.5 200.5q-86 87 -200.5 135t-233.5 48zM844 1382q138 0 268.5 -54t228.5 -152
q97 -97 150 -228t53 -272q0 -137 -55.5 -267.5t-157.5 -232.5q-99 -99 -224.5 -150t-270.5 -51q-137 0 -263 52.5t-227 152.5t-154 227t-53 271q0 140 53 268.5t152 229.5q98 99 228 152.5t272 53.5z" />
    <glyph glyph-name="macron" unicode="&#xaf;" 
d="M254 1221h516v-127h-516v127z" />
    <glyph glyph-name="degree" unicode="&#xb0;" horiz-adv-x="674" 
d="M338 1372q-84 0 -143.5 -58.5t-59.5 -142.5t59.5 -143t143.5 -59t142.5 59t58.5 143t-58.5 142.5t-142.5 58.5zM338 1454q117 0 200 -83t83 -200q0 -116 -83.5 -199t-201.5 -83t-199.5 82t-81.5 200q0 119 82.5 201t200.5 82z" />
    <glyph glyph-name="plusminus" unicode="&#xb1;" horiz-adv-x="1706" 
d="M254 158h1198v-117h-1198v117zM795 1180h118v-344h539v-117h-539v-344h-118v344h-541v117h541v344z" />
    <glyph glyph-name="twosuperior" unicode="&#xb2;" horiz-adv-x="713" 
d="M31 553v20q240 209 344 351.5t104 259.5q0 93 -47.5 144.5t-132.5 51.5q-75 0 -122.5 -44.5t-47.5 -116.5q0 -73 45 -119.5t115 -46.5h16v-6q-21 -14 -43 -20.5t-47 -6.5q-68 0 -111 45t-43 117q0 99 70.5 161t185.5 62q123 0 202 -71.5t79 -180.5q0 -104 -90.5 -212.5
t-357.5 -303.5h237q102 0 137.5 26t65.5 103h16l-51 -213h-524z" />
    <glyph glyph-name="threesuperior" unicode="&#xb3;" horiz-adv-x="713" 
d="M387 999q110 -13 167.5 -67t57.5 -144q0 -108 -90 -182t-221 -74q-109 0 -181.5 52t-72.5 127q0 53 40 88t101 35h2l5 -7q-33 -24 -49.5 -53t-16.5 -63q0 -68 50 -112t128 -44q91 0 135.5 52.5t44.5 158.5q0 93 -34.5 154t-81.5 61q-16 0 -54.5 -22.5t-68.5 -22.5
q-20 0 -33.5 11t-13.5 28q0 18 17 30.5t42 12.5q15 0 41.5 -4t38.5 -4q57 0 94 48.5t37 125.5q0 90 -45 143t-121 53q-54 0 -87.5 -30t-33.5 -80q0 -40 23 -69.5t53 -29.5l2 -5q-20 -8 -31 -10.5t-20 -2.5q-49 0 -78 26t-29 70q0 66 61.5 110t156.5 44q116 0 190 -58.5
t74 -152.5q0 -73 -51.5 -123t-147.5 -70z" />
    <glyph glyph-name="acute" unicode="&#xb4;" 
d="M733 1208l-330 -207h-67l289 299q35 36 56 48t42 12q30 0 51 -20t21 -50q0 -21 -15.5 -41t-46.5 -41z" />
    <glyph glyph-name="mu" unicode="&#xb5;" horiz-adv-x="1120" 
d="M164 193q-27 -136 -52 -339q-34 -272 -112 -272q-37 0 -58.5 23.5t-21.5 64.5q0 40 64.5 273.5t105.5 427.5l109 514h147l-104 -492q-6 -30 -9.5 -58.5t-3.5 -53.5q0 -83 42 -129t118 -46q98 0 163.5 68.5t94.5 200.5l111 510h149l-114 -531q-13 -59 -17 -87.5t-4 -49.5
q0 -48 26 -78t66 -30q35 0 65.5 18t51.5 51t41 93.5t39 60.5q12 0 19 -10t7 -27q0 -25 -11 -66.5t-29 -83.5q-38 -82 -95 -122.5t-135 -40.5q-68 0 -108.5 51t-40.5 139v23q-46 -110 -116 -164t-165 -54q-96 0 -152.5 54.5t-70.5 161.5z" />
    <glyph glyph-name="paragraph" unicode="&#xb6;" 
d="M948 1479v-78h-125v-1401h-94v1401h-182v-1401h-96v782q-173 8 -274 102.5t-101 245.5q0 157 107.5 253t285.5 96h479z" />
    <glyph glyph-name="glyph121" unicode="&#xb7;" horiz-adv-x="541" 
d="M270 573q-47 0 -82.5 36t-35.5 83q0 50 34.5 85.5t83.5 35.5t84 -35.5t35 -85.5q0 -48 -35 -83.5t-84 -35.5z" />
    <glyph glyph-name="cedilla" unicode="&#xb8;" 
d="M440 0h64v-112q24 3 40.5 4t28.5 2q80 0 127.5 -45t47.5 -119q0 -83 -58.5 -129.5t-161.5 -46.5q-62 0 -135 20t-155 59l26 56q66 -34 129 -53t105 -19q61 0 89.5 25.5t28.5 81.5q0 43 -27.5 68.5t-74.5 25.5q-19 0 -36.5 -1.5t-36.5 -4.5z" />
    <glyph glyph-name="onesuperior" unicode="&#xb9;" horiz-adv-x="713" 
d="M309 1303h-137v15q97 6 151.5 24t84.5 53l14 -1q-3 -17 -4.5 -38.5t-1.5 -63.5v-39v-518q0 -96 25.5 -129t90.5 -37v-16h-339v16q65 4 90.5 37t25.5 129v568z" />
    <glyph glyph-name="ordmasculine" unicode="&#xba;" horiz-adv-x="793" 
d="M397 1378q-97 0 -149.5 -76.5t-52.5 -218.5q0 -141 52.5 -218t149.5 -77q96 0 148.5 77t52.5 218q0 142 -52.5 218.5t-148.5 76.5zM397 1405q141 0 241.5 -93.5t100.5 -228.5t-100.5 -229t-241.5 -94t-242.5 94t-101.5 229t101 228.5t243 93.5z" />
    <glyph glyph-name="guillemotright" unicode="&#xbb;" horiz-adv-x="829" 
d="M758 432l-279 -366h-47l143 366l-143 365h47zM403 432l-280 -366h-47l143 366l-143 365h47z" />
    <glyph glyph-name="onequarter" unicode="&#xbc;" horiz-adv-x="1704" 
d="M1391 213v428l-291 -428h291zM1491 213h12q48 0 69 22t30 82h16v-231h-16q-10 62 -31.5 83t-71.5 21h-8v-20q0 -91 24.5 -121t85.5 -33l1 -16h-324v16q63 3 88 33.5t25 120.5v20h-324v23l397 582h27v-582zM422 -33h-82l944 1450h80zM297 1309h-133v14q94 5 145.5 21.5
t79.5 50.5h14q-3 -19 -4.5 -39t-1.5 -58v-36v-484q0 -90 25 -120.5t88 -33.5v-16h-326v16q64 4 88.5 34t24.5 120v531z" />
    <glyph glyph-name="onehalf" unicode="&#xbd;" horiz-adv-x="1704" 
d="M1053 0v18q231 196 330.5 329t99.5 243q0 85 -46.5 133.5t-127.5 48.5q-72 0 -117 -42t-45 -109q0 -68 42.5 -112t108.5 -44q4 0 9 1t8 1v-6q-21 -13 -41.5 -19t-44.5 -6q-65 0 -106.5 42t-41.5 108q0 93 68 151t178 58q117 0 192.5 -66.5t75.5 -167.5q0 -98 -87 -199.5
t-341 -281.5h226q99 0 132.5 24t61.5 95h15l-48 -199h-501zM422 -33h-82l944 1450h80zM297 1309h-133v14q94 5 145.5 21.5t79.5 50.5h14q-3 -19 -4.5 -39t-1.5 -58v-36v-484q0 -90 25 -120.5t88 -33.5v-16h-326v16q64 4 88.5 34t24.5 120v531z" />
    <glyph glyph-name="threequarters" unicode="&#xbe;" horiz-adv-x="1704" 
d="M1391 213v428l-291 -428h291zM1491 213h12q48 0 69 22t30 82h16v-231h-16q-10 62 -31.5 83t-71.5 21h-8v-20q0 -91 24.5 -121t85.5 -33l1 -16h-324v16q63 3 88 33.5t25 120.5v20h-324v23l397 582h27v-582zM422 -33h-82l944 1450h80zM369 1026q106 -14 160.5 -64
t54.5 -135q0 -100 -86 -168.5t-211 -68.5q-104 0 -173 48t-69 118q0 49 38.5 81.5t96.5 32.5h2l4 -6q-31 -22 -47 -49.5t-16 -58.5q0 -64 47.5 -105t122.5 -41q86 0 129 49.5t43 147.5q0 87 -33 144t-78 57q-15 0 -52 -21.5t-64 -21.5q-20 0 -34 10.5t-14 25.5q0 17 17.5 29
t40.5 12q15 0 40.5 -4t37.5 -4q53 0 89 46t36 118q0 83 -44 132.5t-116 49.5q-53 0 -84 -27.5t-31 -74.5q0 -39 22 -65.5t52 -26.5v-6q-22 -7 -31.5 -9t-17.5 -2q-47 0 -74 24t-27 67q0 61 58.5 102t148.5 41q112 0 182 -55t70 -144q0 -68 -49 -114t-141 -64z" />
    <glyph glyph-name="questiondown" unicode="&#xbf;" horiz-adv-x="995" 
d="M723 1178q-48 0 -84.5 36.5t-36.5 83.5q0 49 35.5 84t85.5 35q49 0 84 -34.5t35 -84.5q0 -48 -35.5 -84t-83.5 -36zM750 1075v-526h-45q-5 108 -54.5 168.5t-134.5 60.5q-80 0 -122 -82.5t-42 -240.5q0 -200 63.5 -317.5t170.5 -117.5q45 0 68.5 20t35.5 71q21 85 41 107
t57 22q38 0 60 -21t22 -55q0 -78 -74 -129t-192 -51q-196 0 -320 134.5t-124 346.5q0 158 89 260t222 102q72 0 127.5 -25.5t106.5 -82.5v356h45z" />
    <glyph glyph-name="Agrave" unicode="&#xc0;" horiz-adv-x="1356" 
d="M362 596h439l-217 547zM346 549l-43 -103q-36 -87 -55 -157t-19 -115q0 -64 42 -98.5t137 -46.5v-29h-447v29q131 7 326 486q21 52 32 79l334 823h39l428 -1042q7 -16 19 -46q122 -297 245 -300v-29h-583v28q84 5 125 32t41 79q0 22 -10 55.5t-42 116.5l-92 238h-477z
M565 1826l289 -299h-67l-330 207q-31 21 -46.5 41t-15.5 41q0 30 21 50t51 20q21 0 42 -12t56 -48z" />
    <glyph glyph-name="Aacute" unicode="&#xc1;" horiz-adv-x="1356" 
d="M362 596h439l-217 547zM346 549l-43 -103q-36 -87 -55 -157t-19 -115q0 -64 42 -98.5t137 -46.5v-29h-447v29q131 7 326 486q21 52 32 79l334 823h39l428 -1042q7 -16 19 -46q122 -297 245 -300v-29h-583v28q84 5 125 32t41 79q0 22 -10 55.5t-42 116.5l-92 238h-477z
M899 1734l-330 -207h-67l289 299q35 36 56 48t42 12q30 0 51 -20t21 -50q0 -21 -15.5 -41t-46.5 -41z" />
    <glyph glyph-name="Acircumflex" unicode="&#xc2;" horiz-adv-x="1356" 
d="M362 596h439l-217 547zM346 549l-43 -103q-36 -87 -55 -157t-19 -115q0 -64 42 -98.5t137 -46.5v-29h-447v29q131 7 326 486q21 52 32 79l334 823h39l428 -1042q7 -16 19 -46q122 -297 245 -300v-29h-583v28q84 5 125 32t41 79q0 22 -10 55.5t-42 116.5l-92 238h-477z
M619 1878h118l232 -351h-58l-233 211l-233 -211h-58z" />
    <glyph glyph-name="Atilde" unicode="&#xc3;" horiz-adv-x="1356" 
d="M362 596h439l-217 547zM346 549l-43 -103q-36 -87 -55 -157t-19 -115q0 -64 42 -98.5t137 -46.5v-29h-447v29q131 7 326 486q21 52 32 79l334 823h39l428 -1042q7 -16 19 -46q122 -297 245 -300v-29h-583v28q84 5 125 32t41 79q0 22 -10 55.5t-42 116.5l-92 238h-477z
M911 1824h54q-20 -102 -68 -152t-127 -50q-15 0 -33 2.5t-41 7.5l-109 27q-12 3 -26 4.5t-30 1.5q-33 0 -53.5 -21t-35.5 -69h-51q19 106 68 159.5t129 53.5q19 0 34 -2t29 -7l111 -30q16 -4 30 -6.5t25 -2.5q37 0 58 18.5t36 65.5z" />
    <glyph glyph-name="Adieresis" unicode="&#xc4;" horiz-adv-x="1356" 
d="M362 596h439l-217 547zM346 549l-43 -103q-36 -87 -55 -157t-19 -115q0 -64 42 -98.5t137 -46.5v-29h-447v29q131 7 326 486q21 52 32 79l334 823h39l428 -1042q7 -16 19 -46q122 -297 245 -300v-29h-583v28q84 5 125 32t41 79q0 22 -10 55.5t-42 116.5l-92 238h-477z
M854 1783q40 0 69 -30t29 -70q0 -43 -28 -71.5t-70 -28.5t-71 29t-29 71q0 40 30 70t70 30zM502 1783q40 0 70 -30t30 -70q0 -42 -29 -71t-71 -29t-70 28.5t-28 71.5q0 40 29 70t69 30z" />
    <glyph glyph-name="Aring" unicode="&#xc5;" horiz-adv-x="1356" 
d="M684 1874q-62 0 -104.5 -43.5t-42.5 -106.5q0 -61 43 -105t104 -44q62 0 106 44t44 105q0 63 -44 106.5t-106 43.5zM684 1964q100 0 171 -70t71 -170t-70.5 -169.5t-171.5 -69.5t-171.5 69.5t-70.5 169.5q0 101 70.5 170.5t171.5 69.5zM362 596h439l-217 547zM346 549
l-43 -103q-36 -87 -55 -157t-19 -115q0 -64 42 -98.5t137 -46.5v-29h-447v29q131 7 327 490q21 50 31 77l334 821h39l428 -1042q7 -16 19 -46q122 -297 245 -300v-29h-583v28q84 5 125 32t41 79q0 22 -10 55.5t-42 116.5l-92 238h-477z" />
    <glyph glyph-name="AE" unicode="&#xc6;" horiz-adv-x="1892" 
d="M494 754h378v587h-53zM1090 418q0 -260 47 -318.5t215 -58.5q193 0 302 94t134 283h29l-15 -418h-1128v29h16q108 0 145 72.5t37 392.5v43v180h-393l-170 -299q-61 -108 -91 -178t-30 -105q0 -50 36.5 -78t101.5 -28h12v-29h-416v29q73 23 144.5 103t185.5 278l424 737
q20 36 32.5 70t12.5 51q0 48 -37 68t-129 20v28h1128l15 -331h-27q-33 158 -129.5 223t-304.5 65h-147v-587h10q148 0 208.5 53.5t63.5 187.5h27v-546h-27q-8 149 -69 208.5t-205 59.5h-8v-299z" />
    <glyph glyph-name="Ccedilla" unicode="&#xc7;" horiz-adv-x="1419" 
d="M1313 406q-13 -202 -156.5 -320.5t-378.5 -118.5q-310 0 -493 183.5t-183 498.5q0 343 198.5 555.5t512.5 212.5q113 0 243 -42t150 -42q19 0 34 12t26 35h30l11 -440h-27q-58 209 -172 321.5t-268 112.5q-219 0 -351.5 -192.5t-132.5 -509.5q0 -296 132.5 -465.5
t361.5 -169.5q179 0 295 100t131 269h37zM682 0h64v-112q24 3 40.5 4t28.5 2q80 0 127.5 -45t47.5 -119q0 -83 -58.5 -129.5t-161.5 -46.5q-62 0 -135 20t-155 59l26 56q66 -34 129 -53t105 -19q61 0 89.5 25.5t28.5 81.5q0 43 -27.5 68.5t-74.5 25.5q-19 0 -36.5 -1.5
t-36.5 -4.5z" />
    <glyph glyph-name="Egrave" unicode="&#xc8;" horiz-adv-x="1356" 
d="M86 0v29h16q108 0 145.5 72.5t37.5 392.5v43v354q0 319 -37.5 392t-145.5 73h-16v28h1061l14 -331h-26q-34 159 -129.5 223.5t-303.5 64.5h-200v-587q194 3 262.5 54t73.5 187h28v-546h-28q-11 153 -80.5 209t-255.5 59v-299q0 -263 48 -320t247 -57q209 0 318 90.5
t136 286.5h29l-14 -418h-1180zM565 1826l289 -299h-67l-330 207q-31 21 -46.5 41t-15.5 41q0 30 21 50t51 20q21 0 42 -12t56 -48z" />
    <glyph glyph-name="Eacute" unicode="&#xc9;" horiz-adv-x="1356" 
d="M86 0v29h16q108 0 145.5 72.5t37.5 392.5v43v354q0 319 -37.5 392t-145.5 73h-16v28h1061l14 -331h-26q-34 159 -129.5 223.5t-303.5 64.5h-200v-587q194 3 262.5 54t73.5 187h28v-546h-28q-11 153 -80.5 209t-255.5 59v-299q0 -263 48 -320t247 -57q209 0 318 90.5
t136 286.5h29l-14 -418h-1180zM899 1734l-330 -207h-67l289 299q35 36 56 48t42 12q30 0 51 -20t21 -50q0 -21 -15.5 -41t-46.5 -41z" />
    <glyph glyph-name="Ecircumflex" unicode="&#xca;" horiz-adv-x="1356" 
d="M86 0v29h16q108 0 145.5 72.5t37.5 392.5v43v354q0 319 -37.5 392t-145.5 73h-16v28h1061l14 -331h-26q-34 159 -129.5 223.5t-303.5 64.5h-200v-587q194 3 262.5 54t73.5 187h28v-546h-28q-11 153 -80.5 209t-255.5 59v-299q0 -263 48 -320t247 -57q209 0 318 90.5
t136 286.5h29l-14 -418h-1180zM619 1878h118l232 -351h-58l-233 211l-233 -211h-58z" />
    <glyph glyph-name="Edieresis" unicode="&#xcb;" horiz-adv-x="1356" 
d="M86 0v29h16q108 0 145.5 72.5t37.5 392.5v43v354q0 319 -37.5 392t-145.5 73h-16v28h1061l14 -331h-26q-34 159 -129.5 223.5t-303.5 64.5h-200v-587q194 3 262.5 54t73.5 187h28v-546h-28q-11 153 -80.5 209t-255.5 59v-299q0 -263 48 -320t247 -57q209 0 318 90.5
t136 286.5h29l-14 -418h-1180zM854 1783q40 0 69 -30t29 -70q0 -43 -28 -71.5t-70 -28.5t-71 29t-29 71q0 40 30 70t70 30zM502 1783q40 0 70 -30t30 -70q0 -42 -29 -71t-71 -29t-70 28.5t-28 71.5q0 40 29 70t69 30z" />
    <glyph glyph-name="Igrave" unicode="&#xcc;" horiz-adv-x="807" 
d="M717 1384v-28h-17q-108 0 -146 -74.5t-38 -411.5v-22v-334q0 -337 38 -411t146 -74h17v-29h-627v29h16q108 0 145.5 72.5t37.5 392.5v43v354q0 319 -37.5 392t-145.5 73h-16v28h627zM290 1826l289 -299h-67l-330 207q-31 21 -46.5 41t-15.5 41q0 30 21 50t51 20
q21 0 42 -12t56 -48z" />
    <glyph glyph-name="Iacute" unicode="&#xcd;" horiz-adv-x="807" 
d="M717 1384v-28h-17q-108 0 -146 -74.5t-38 -411.5v-22v-334q0 -337 38 -411t146 -74h17v-29h-627v29h16q108 0 145.5 72.5t37.5 392.5v43v354q0 319 -37.5 392t-145.5 73h-16v28h627zM624 1734l-330 -207h-67l289 299q35 36 56 48t42 12q30 0 51 -20t21 -50
q0 -21 -15.5 -41t-46.5 -41z" />
    <glyph glyph-name="Icircumflex" unicode="&#xce;" horiz-adv-x="807" 
d="M717 1384v-28h-17q-108 0 -146 -74.5t-38 -411.5v-22v-334q0 -337 38 -411t146 -74h17v-29h-627v29h16q108 0 145.5 72.5t37.5 392.5v43v354q0 319 -37.5 392t-145.5 73h-16v28h627zM344 1878h118l232 -351h-58l-233 211l-233 -211h-58z" />
    <glyph glyph-name="Idieresis" unicode="&#xcf;" horiz-adv-x="807" 
d="M717 1384v-28h-17q-108 0 -146 -74.5t-38 -411.5v-22v-334q0 -337 38 -411t146 -74h17v-29h-627v29h16q108 0 145.5 72.5t37.5 392.5v43v354q0 319 -37.5 392t-145.5 73h-16v28h627zM579 1783q40 0 69 -30t29 -70q0 -43 -28 -71.5t-70 -28.5t-71 29t-29 71q0 40 30 70
t70 30zM227 1783q40 0 70 -30t30 -70q0 -42 -29 -71t-71 -29t-70 28.5t-28 71.5q0 40 29 70t69 30z" />
    <glyph glyph-name="Eth" unicode="&#xd0;" horiz-adv-x="1575" 
d="M94 0v29h17q108 0 146 74t38 411v23v155h-285v58h285v120q0 337 -38 411.5t-146 74.5h-17v28h584q198 0 321 -27t209 -87q129 -89 203 -242.5t74 -333.5t-72.5 -333t-200.5 -244q-88 -63 -207 -90t-327 -27h-584zM512 1341v-591h338v-58h-338v-305q0 -226 40.5 -285
t158.5 -59q229 0 373.5 180t144.5 471q0 304 -152.5 475.5t-425.5 171.5h-139z" />
    <glyph glyph-name="Ntilde" unicode="&#xd1;" horiz-adv-x="1567" 
d="M1282 354v633q0 212 -45.5 289t-161.5 80v28h455v-28q-115 -3 -160 -80t-45 -289v-1001h-29l-979 1224v-813q0 -214 45 -290t160 -79v-28h-452v29q115 3 159.5 79.5t44.5 288.5v602q0 215 -43 285t-155 72v28h379zM1017 1824h54q-20 -102 -68 -152t-127 -50
q-15 0 -33 2.5t-41 7.5l-109 27q-12 3 -26 4.5t-30 1.5q-33 0 -53.5 -21t-35.5 -69h-51q19 106 68 159.5t129 53.5q19 0 34 -2t29 -7l111 -30q16 -4 30 -6.5t25 -2.5q37 0 58 18.5t36 65.5z" />
    <glyph glyph-name="Ograve" unicode="&#xd2;" horiz-adv-x="1659" 
d="M829 10q217 0 350.5 186t133.5 496q0 315 -130.5 498.5t-351.5 183.5q-215 0 -350 -186t-135 -492q0 -307 134.5 -496.5t348.5 -189.5zM90 686q0 126 41.5 241.5t120.5 211.5q110 135 262 206.5t328 71.5q137 0 267.5 -48.5t231.5 -137.5q114 -100 171 -235t57 -306
q0 -146 -56 -282t-155 -232q-99 -95 -241 -152t-283 -57q-155 0 -288 50.5t-237 148.5q-113 105 -166 231.5t-53 288.5zM716 1826l289 -299h-67l-330 207q-31 21 -46.5 41t-15.5 41q0 30 21 50t51 20q21 0 42 -12t56 -48z" />
    <glyph glyph-name="Oacute" unicode="&#xd3;" horiz-adv-x="1659" 
d="M829 10q217 0 350.5 186t133.5 496q0 315 -130.5 498.5t-351.5 183.5q-215 0 -350 -186t-135 -492q0 -307 134.5 -496.5t348.5 -189.5zM90 686q0 126 41.5 241.5t120.5 211.5q110 135 262 206.5t328 71.5q137 0 267.5 -48.5t231.5 -137.5q114 -100 171 -235t57 -306
q0 -146 -56 -282t-155 -232q-99 -95 -241 -152t-283 -57q-155 0 -288 50.5t-237 148.5q-113 105 -166 231.5t-53 288.5zM1050 1734l-330 -207h-67l289 299q35 36 56 48t42 12q30 0 51 -20t21 -50q0 -21 -15.5 -41t-46.5 -41z" />
    <glyph glyph-name="Ocircumflex" unicode="&#xd4;" horiz-adv-x="1659" 
d="M829 10q217 0 350.5 186t133.5 496q0 315 -130.5 498.5t-351.5 183.5q-215 0 -350 -186t-135 -492q0 -307 134.5 -496.5t348.5 -189.5zM90 686q0 126 41.5 241.5t120.5 211.5q110 135 262 206.5t328 71.5q137 0 267.5 -48.5t231.5 -137.5q114 -100 171 -235t57 -306
q0 -146 -56 -282t-155 -232q-99 -95 -241 -152t-283 -57q-155 0 -288 50.5t-237 148.5q-113 105 -166 231.5t-53 288.5zM770 1878h118l232 -351h-58l-233 211l-233 -211h-58z" />
    <glyph glyph-name="Otilde" unicode="&#xd5;" horiz-adv-x="1659" 
d="M829 10q217 0 350.5 186t133.5 496q0 315 -130.5 498.5t-351.5 183.5q-215 0 -350 -186t-135 -492q0 -307 134.5 -496.5t348.5 -189.5zM90 686q0 126 41.5 241.5t120.5 211.5q110 135 262 206.5t328 71.5q137 0 267.5 -48.5t231.5 -137.5q114 -100 171 -235t57 -306
q0 -146 -56 -282t-155 -232q-99 -95 -241 -152t-283 -57q-155 0 -288 50.5t-237 148.5q-113 105 -166 231.5t-53 288.5zM1062 1824h54q-20 -102 -68 -152t-127 -50q-15 0 -33 2.5t-41 7.5l-109 27q-12 3 -26 4.5t-30 1.5q-33 0 -53.5 -21t-35.5 -69h-51q19 106 68 159.5
t129 53.5q19 0 34 -2t29 -7l111 -30q16 -4 30 -6.5t25 -2.5q37 0 58 18.5t36 65.5z" />
    <glyph glyph-name="Odieresis" unicode="&#xd6;" horiz-adv-x="1659" 
d="M829 10q217 0 350.5 186t133.5 496q0 315 -130.5 498.5t-351.5 183.5q-215 0 -350 -186t-135 -492q0 -307 134.5 -496.5t348.5 -189.5zM90 686q0 126 41.5 241.5t120.5 211.5q110 135 262 206.5t328 71.5q137 0 267.5 -48.5t231.5 -137.5q114 -100 171 -235t57 -306
q0 -146 -56 -282t-155 -232q-99 -95 -241 -152t-283 -57q-155 0 -288 50.5t-237 148.5q-113 105 -166 231.5t-53 288.5zM1005 1783q40 0 69 -30t29 -70q0 -43 -28 -71.5t-70 -28.5t-71 29t-29 71q0 40 30 70t70 30zM653 1783q40 0 70 -30t30 -70q0 -42 -29 -71t-71 -29
t-70 28.5t-28 71.5q0 40 29 70t69 30z" />
    <glyph glyph-name="multiply" unicode="&#xd7;" horiz-adv-x="1706" 
d="M381 1169l477 -477l475 477l82 -82l-475 -477l475 -475l-82 -82l-475 475l-477 -475l-80 82l475 475l-475 477z" />
    <glyph glyph-name="Oslash" unicode="&#xd8;" horiz-adv-x="1659" 
d="M1194 1180l-684 -1016q46 -69 133.5 -111.5t185.5 -42.5q217 0 350.5 186t133.5 496q0 155 -29.5 276t-89.5 212zM467 211l686 1016q-67 73 -148 110t-174 37q-214 0 -349.5 -187t-135.5 -491q0 -134 31 -258.5t90 -226.5zM219 -156l172 254q-148 103 -224.5 249.5
t-76.5 330.5q0 310 219 524.5t533 214.5q100 0 190 -23.5t182 -74.5l134 197h73l-151 -226q152 -108 225.5 -255t73.5 -345q0 -311 -214.5 -517t-537.5 -206q-97 0 -189 24.5t-186 74.5l-147 -222h-76z" />
    <glyph glyph-name="Ugrave" unicode="&#xd9;" horiz-adv-x="1507" 
d="M1233 987q0 212 -45.5 289t-161.5 80v28h453l-1 -28q-114 -3 -159 -80t-45 -289v-436q0 -329 -118 -456.5t-406 -127.5q-153 0 -258.5 34.5t-169.5 104.5q-47 52 -65.5 131t-18.5 279v354q0 337 -38 411.5t-147 74.5h-16v28h616v-28h-16q-108 0 -145 -73t-37 -392v-43
v-330q0 -264 87 -366.5t294 -102.5q215 0 306 107.5t91 384.5v446zM698 1826l289 -299h-67l-330 207q-31 21 -46.5 41t-15.5 41q0 30 21 50t51 20q21 0 42 -12t56 -48z" />
    <glyph glyph-name="Uacute" unicode="&#xda;" horiz-adv-x="1507" 
d="M1233 987q0 212 -45.5 289t-161.5 80v28h453l-1 -28q-114 -3 -159 -80t-45 -289v-436q0 -329 -118 -456.5t-406 -127.5q-153 0 -258.5 34.5t-169.5 104.5q-47 52 -65.5 131t-18.5 279v354q0 337 -38 411.5t-147 74.5h-16v28h616v-28h-16q-108 0 -145 -73t-37 -392v-43
v-330q0 -264 87 -366.5t294 -102.5q215 0 306 107.5t91 384.5v446zM1032 1734l-330 -207h-67l289 299q35 36 56 48t42 12q30 0 51 -20t21 -50q0 -21 -15.5 -41t-46.5 -41z" />
    <glyph glyph-name="Ucircumflex" unicode="&#xdb;" horiz-adv-x="1507" 
d="M1233 987q0 212 -45.5 289t-161.5 80v28h453l-1 -28q-114 -3 -159 -80t-45 -289v-436q0 -329 -118 -456.5t-406 -127.5q-153 0 -258.5 34.5t-169.5 104.5q-47 52 -65.5 131t-18.5 279v354q0 337 -38 411.5t-147 74.5h-16v28h616v-28h-16q-108 0 -145 -73t-37 -392v-43
v-330q0 -264 87 -366.5t294 -102.5q215 0 306 107.5t91 384.5v446zM752 1878h118l232 -351h-58l-233 211l-233 -211h-58z" />
    <glyph glyph-name="Udieresis" unicode="&#xdc;" horiz-adv-x="1507" 
d="M1233 987q0 212 -45.5 289t-161.5 80v28h453l-1 -28q-114 -3 -159 -80t-45 -289v-436q0 -329 -118 -456.5t-406 -127.5q-153 0 -258.5 34.5t-169.5 104.5q-47 52 -65.5 131t-18.5 279v354q0 337 -38 411.5t-147 74.5h-16v28h616v-28h-16q-108 0 -145 -73t-37 -392v-43
v-330q0 -264 87 -366.5t294 -102.5q215 0 306 107.5t91 384.5v446zM987 1783q40 0 69 -30t29 -70q0 -43 -28 -71.5t-70 -28.5t-71 29t-29 71q0 40 30 70t70 30zM635 1783q40 0 70 -30t30 -70q0 -42 -29 -71t-71 -29t-70 28.5t-28 71.5q0 40 29 70t69 30z" />
    <glyph glyph-name="Yacute" unicode="&#xdd;" horiz-adv-x="1247" 
d="M750 397q0 -231 37.5 -299.5t144.5 -68.5h16v-29h-616v29h16q107 0 144.5 68.5t37.5 299.5v189l-307 534q-6 11 -17 30q-114 198 -243 206v28h594v-28q-79 -4 -112 -23.5t-33 -62.5q0 -20 10.5 -54.5t26.5 -62.5l276 -494l211 367q41 70 65.5 133.5t24.5 95.5
q0 50 -37.5 74.5t-113.5 26.5l-1 28h441v-28q-139 -6 -331 -338l-7 -12l-227 -394v-215zM846 1734l-330 -207h-67l289 299q35 36 56 48t42 12q30 0 51 -20t21 -50q0 -21 -15.5 -41t-46.5 -41z" />
    <glyph glyph-name="Thorn" unicode="&#xde;" horiz-adv-x="1200" 
d="M502 408h102q168 0 254 73.5t86 218.5q0 162 -96 246t-281 84h-65v-622zM502 1071h213q223 0 346 -90.5t123 -253.5q0 -177 -129 -269.5t-375 -92.5l-178 -1q5 -213 44 -274t144 -61h12v-29h-616v29h16q108 0 145.5 72.5t37.5 392.5v43v354q0 319 -37.5 392t-145.5 73
h-16v28h616v-28h-12q-102 0 -142.5 -59t-45.5 -226z" />
    <glyph glyph-name="germandbls" unicode="&#xdf;" horiz-adv-x="1034" 
d="M360 1104v-805q0 -181 23.5 -225.5t91.5 -44.5v-29h-420v29h8q89 0 114.5 37.5t25.5 240.5v744q0 179 88 267.5t266 88.5q130 0 209.5 -64t79.5 -167q0 -93 -121 -214q-24 -25 -37 -38q-30 -32 -45.5 -68.5t-15.5 -75.5q0 -55 24.5 -97t89.5 -91q140 -107 178.5 -173
t38.5 -155q0 -125 -82 -209t-206 -84q-42 0 -75.5 13.5t-53.5 38.5l24 24q15 -18 37.5 -26.5t54.5 -8.5q70 0 112 52.5t42 138.5q0 67 -32 123t-111 123q-12 9 -33 27q-139 117 -139 208q0 79 83 166q12 13 17 18q61 66 81.5 120t20.5 138q0 126 -42.5 185t-133.5 59
q-85 0 -123.5 -61.5t-38.5 -204.5z" />
    <glyph glyph-name="agrave" unicode="&#xe0;" horiz-adv-x="930" 
d="M567 492q-38 -23 -107 -59q-227 -117 -227 -261q0 -72 39 -115t105 -43q98 0 144 68t46 213v197zM561 78q-39 -53 -99 -80t-140 -27q-120 0 -186 59.5t-66 166.5q0 166 311 250l14 4q99 25 134.5 57t35.5 86v74q0 92 -42.5 139t-125.5 47q-59 0 -86.5 -20t-38.5 -74
q-12 -67 -30.5 -88t-55.5 -21q-36 0 -56.5 19.5t-20.5 52.5q0 76 81 122t218 46q167 0 240 -58t73 -192v-455q0 -91 18 -127t62 -36q30 0 60 15.5t61 47.5l22 -18q-29 -46 -82 -71.5t-117 -25.5q-81 0 -126.5 26.5t-57.5 80.5zM317 1300l289 -299h-67l-330 207
q-31 21 -46.5 41t-15.5 41q0 30 21 50t51 20q21 0 42 -12t56 -48z" />
    <glyph glyph-name="aacute" unicode="&#xe1;" horiz-adv-x="930" 
d="M567 492q-38 -23 -107 -59q-227 -117 -227 -261q0 -72 39 -115t105 -43q98 0 144 68t46 213v197zM561 78q-39 -53 -99 -80t-140 -27q-120 0 -186 59.5t-66 166.5q0 166 311 250l14 4q99 25 134.5 57t35.5 86v74q0 92 -42.5 139t-125.5 47q-59 0 -86.5 -20t-38.5 -74
q-12 -67 -30.5 -88t-55.5 -21q-36 0 -56.5 19.5t-20.5 52.5q0 76 81 122t218 46q167 0 240 -58t73 -192v-455q0 -91 18 -127t62 -36q30 0 60 15.5t61 47.5l22 -18q-29 -46 -82 -71.5t-117 -25.5q-81 0 -126.5 26.5t-57.5 80.5zM651 1208l-330 -207h-67l289 299q35 36 56 48
t42 12q30 0 51 -20t21 -50q0 -21 -15.5 -41t-46.5 -41z" />
    <glyph glyph-name="acircumflex" unicode="&#xe2;" horiz-adv-x="930" 
d="M567 492q-38 -23 -107 -59q-227 -117 -227 -261q0 -72 39 -115t105 -43q98 0 144 68t46 213v197zM561 78q-39 -53 -99 -80t-140 -27q-120 0 -186 59.5t-66 166.5q0 166 311 250l14 4q99 25 134.5 57t35.5 86v74q0 92 -42.5 139t-125.5 47q-59 0 -86.5 -20t-38.5 -74
q-12 -67 -30.5 -88t-55.5 -21q-36 0 -56.5 19.5t-20.5 52.5q0 76 81 122t218 46q167 0 240 -58t73 -192v-455q0 -91 18 -127t62 -36q30 0 60 15.5t61 47.5l22 -18q-29 -46 -82 -71.5t-117 -25.5q-81 0 -126.5 26.5t-57.5 80.5zM371 1352h118l232 -351h-58l-233 211
l-233 -211h-58z" />
    <glyph glyph-name="atilde" unicode="&#xe3;" horiz-adv-x="930" 
d="M567 492q-38 -23 -107 -59q-227 -117 -227 -261q0 -72 39 -115t105 -43q98 0 144 68t46 213v197zM561 78q-39 -53 -99 -80t-140 -27q-120 0 -186 59.5t-66 166.5q0 166 311 250l14 4q99 25 134.5 57t35.5 86v74q0 92 -42.5 139t-125.5 47q-59 0 -86.5 -20t-38.5 -74
q-12 -67 -30.5 -88t-55.5 -21q-36 0 -56.5 19.5t-20.5 52.5q0 76 81 122t218 46q167 0 240 -58t73 -192v-455q0 -91 18 -127t62 -36q30 0 60 15.5t61 47.5l22 -18q-29 -46 -82 -71.5t-117 -25.5q-81 0 -126.5 26.5t-57.5 80.5zM663 1298h54q-20 -102 -68 -152t-127 -50
q-15 0 -33 2.5t-41 7.5l-109 27q-12 3 -26 4.5t-30 1.5q-33 0 -53.5 -21t-35.5 -69h-51q19 106 68 159.5t129 53.5q19 0 34 -2t29 -7l111 -30q16 -4 30 -6.5t25 -2.5q37 0 58 18.5t36 65.5z" />
    <glyph glyph-name="adieresis" unicode="&#xe4;" horiz-adv-x="930" 
d="M567 492q-38 -23 -107 -59q-227 -117 -227 -261q0 -72 39 -115t105 -43q98 0 144 68t46 213v197zM561 78q-39 -53 -99 -80t-140 -27q-120 0 -186 59.5t-66 166.5q0 166 311 250l14 4q99 25 134.5 57t35.5 86v74q0 92 -42.5 139t-125.5 47q-59 0 -86.5 -20t-38.5 -74
q-12 -67 -30.5 -88t-55.5 -21q-36 0 -56.5 19.5t-20.5 52.5q0 76 81 122t218 46q167 0 240 -58t73 -192v-455q0 -91 18 -127t62 -36q30 0 60 15.5t61 47.5l22 -18q-29 -46 -82 -71.5t-117 -25.5q-81 0 -126.5 26.5t-57.5 80.5zM606 1257q40 0 69 -30t29 -70q0 -43 -28 -71.5
t-70 -28.5t-71 29t-29 71q0 40 30 70t70 30zM254 1257q40 0 70 -30t30 -70q0 -42 -29 -71t-71 -29t-70 28.5t-28 71.5q0 40 29 70t69 30z" />
    <glyph glyph-name="aring" unicode="&#xe5;" horiz-adv-x="930" 
d="M561 78q-39 -53 -99 -80t-140 -27q-120 0 -186 59.5t-66 166.5q0 166 311 250l14 4q99 25 134.5 57t35.5 86v74q0 92 -42.5 139t-125.5 47q-59 0 -86.5 -20t-38.5 -74q-12 -67 -30.5 -88t-55.5 -21q-36 0 -56.5 19.5t-20.5 52.5q0 76 81 122t218 46q167 0 240 -58
t73 -192v-455q0 -91 18 -127t62 -36q30 0 60 15.5t61 47.5l22 -18q-29 -46 -82 -71.5t-117 -25.5q-81 0 -126.5 26.5t-57.5 80.5zM424 1348q-62 0 -105 -43.5t-43 -106.5q0 -62 43.5 -105.5t104.5 -43.5q62 0 106.5 44t44.5 105q0 62 -44.5 106t-106.5 44zM424 1440
q100 0 171 -71t71 -171t-70.5 -170t-171.5 -70q-100 0 -170 69.5t-70 170.5t70 171.5t170 70.5zM567 492q-38 -23 -107 -59q-227 -117 -227 -261q0 -72 39 -115t105 -43q98 0 144 68t46 213v197z" />
    <glyph glyph-name="ae" unicode="&#xe6;" horiz-adv-x="1380" 
d="M756 612h409q-6 114 -57 178t-135 64q-85 0 -143 -64.5t-74 -177.5zM700 776q72 60 141.5 87.5t147.5 27.5q141 0 228.5 -86t87.5 -223v-9h-557q-7 -43 -9 -63t-2 -35q0 -210 79.5 -331t213.5 -121q93 0 160 50t100 144h37q-34 -118 -124 -182t-224 -64
q-104 0 -188.5 37.5t-143.5 108.5q-72 -74 -147.5 -109t-161.5 -35q-131 0 -198.5 57t-67.5 167q0 173 346 257l2 1q73 18 110 53t37 86v74q0 92 -42.5 139t-125.5 47q-59 0 -86 -20t-39 -74q-12 -67 -30.5 -88t-55.5 -21q-36 0 -56.5 19.5t-20.5 52.5q0 76 82 122t221 46
q108 0 177.5 -28t108.5 -87zM567 492q-38 -23 -107 -59q-227 -117 -227 -261q0 -73 40.5 -115.5t109.5 -42.5q101 0 142.5 59t41.5 222v197z" />
    <glyph glyph-name="ccedilla" unicode="&#xe7;" horiz-adv-x="846" 
d="M817 213q-18 -115 -102 -178.5t-217 -63.5q-193 0 -310.5 120t-117.5 317q0 212 123 347.5t313 135.5q120 0 202.5 -49t82.5 -115q0 -39 -20.5 -60.5t-57.5 -21.5q-38 0 -58 21.5t-30 74.5q-13 68 -39 90.5t-78 22.5q-116 0 -182 -114.5t-66 -317.5q0 -188 77 -291.5
t216 -103.5q93 0 152.5 48.5t76.5 137.5h35zM387 0h64v-112q24 3 40.5 4t28.5 2q80 0 127.5 -45t47.5 -119q0 -83 -58.5 -129.5t-161.5 -46.5q-62 0 -135 20t-155 59l26 56q66 -34 129 -53t105 -19q61 0 89.5 25.5t28.5 81.5q0 43 -27.5 68.5t-74.5 25.5q-19 0 -36.5 -1.5
t-36.5 -4.5z" />
    <glyph glyph-name="egrave" unicode="&#xe8;" horiz-adv-x="944" 
d="M279 612l438 1q-8 113 -62.5 177t-142.5 64q-92 0 -154.5 -65.5t-78.5 -176.5zM268 573q-4 -29 -6 -54.5t-2 -45.5q0 -208 84.5 -329t226.5 -121q99 0 171 50.5t106 143.5h41q-36 -117 -133.5 -181.5t-239.5 -64.5q-206 0 -326 119t-120 322q0 211 129.5 345t328.5 134
q150 0 243 -86t93 -223v-9h-596zM403 1300l289 -299h-67l-330 207q-31 21 -46.5 41t-15.5 41q0 30 21 50t51 20q21 0 42 -12t56 -48z" />
    <glyph glyph-name="eacute" unicode="&#xe9;" horiz-adv-x="944" 
d="M279 612l438 1q-8 113 -62.5 177t-142.5 64q-92 0 -154.5 -65.5t-78.5 -176.5zM268 573q-4 -29 -6 -54.5t-2 -45.5q0 -208 84.5 -329t226.5 -121q99 0 171 50.5t106 143.5h41q-36 -117 -133.5 -181.5t-239.5 -64.5q-206 0 -326 119t-120 322q0 211 129.5 345t328.5 134
q150 0 243 -86t93 -223v-9h-596zM737 1208l-330 -207h-67l289 299q35 36 56 48t42 12q30 0 51 -20t21 -50q0 -21 -15.5 -41t-46.5 -41z" />
    <glyph glyph-name="ecircumflex" unicode="&#xea;" horiz-adv-x="944" 
d="M279 612l438 1q-8 113 -62.5 177t-142.5 64q-92 0 -154.5 -65.5t-78.5 -176.5zM268 573q-4 -29 -6 -54.5t-2 -45.5q0 -208 84.5 -329t226.5 -121q99 0 171 50.5t106 143.5h41q-36 -117 -133.5 -181.5t-239.5 -64.5q-206 0 -326 119t-120 322q0 211 129.5 345t328.5 134
q150 0 243 -86t93 -223v-9h-596zM457 1352h118l232 -351h-58l-233 211l-233 -211h-58z" />
    <glyph glyph-name="edieresis" unicode="&#xeb;" horiz-adv-x="944" 
d="M279 612l438 1q-8 113 -62.5 177t-142.5 64q-92 0 -154.5 -65.5t-78.5 -176.5zM268 573q-4 -29 -6 -54.5t-2 -45.5q0 -208 84.5 -329t226.5 -121q99 0 171 50.5t106 143.5h41q-36 -117 -133.5 -181.5t-239.5 -64.5q-206 0 -326 119t-120 322q0 211 129.5 345t328.5 134
q150 0 243 -86t93 -223v-9h-596zM692 1257q40 0 69 -30t29 -70q0 -43 -28 -71.5t-70 -28.5t-71 29t-29 71q0 40 30 70t70 30zM340 1257q40 0 70 -30t30 -70q0 -42 -29 -71t-71 -29t-70 28.5t-28 71.5q0 40 29 70t69 30z" />
    <glyph glyph-name="igrave" unicode="&#xec;" horiz-adv-x="578" 
d="M375 307q0 -200 25.5 -239t115.5 -39h8v-29h-454v29h8q88 0 113.5 37.5t25.5 240.5v324q0 101 -31 138.5t-116 43.5v23q84 13 159 29t146 36v-594zM176 1300l289 -299h-67l-330 207q-31 21 -46.5 41t-15.5 41q0 30 21 50t51 20q21 0 42 -12t56 -48z" />
    <glyph glyph-name="iacute" unicode="&#xed;" horiz-adv-x="578" 
d="M375 307q0 -200 25.5 -239t115.5 -39h8v-29h-454v29h8q88 0 113.5 37.5t25.5 240.5v324q0 101 -31 138.5t-116 43.5v23q84 13 159 29t146 36v-594zM510 1208l-330 -207h-67l289 299q35 36 56 48t42 12q30 0 51 -20t21 -50q0 -21 -15.5 -41t-46.5 -41z" />
    <glyph glyph-name="icircumflex" unicode="&#xee;" horiz-adv-x="578" 
d="M375 307q0 -200 25.5 -239t115.5 -39h8v-29h-454v29h8q88 0 113.5 37.5t25.5 240.5v324q0 101 -31 138.5t-116 43.5v23q84 13 159 29t146 36v-594zM230 1352h118l232 -351h-58l-233 211l-233 -211h-58z" />
    <glyph glyph-name="idieresis" unicode="&#xef;" horiz-adv-x="578" 
d="M375 307q0 -200 25.5 -239t115.5 -39h8v-29h-454v29h8q88 0 113.5 37.5t25.5 240.5v324q0 101 -31 138.5t-116 43.5v23q84 13 159 29t146 36v-594zM465 1257q40 0 69 -30t29 -70q0 -43 -28 -71.5t-70 -28.5t-71 29t-29 71q0 40 30 70t70 30zM113 1257q40 0 70 -30t30 -70
q0 -42 -29 -71t-71 -29t-70 28.5t-28 71.5q0 40 29 70t69 30z" />
    <glyph glyph-name="eth" unicode="&#xf0;" horiz-adv-x="1057" 
d="M563 1190q216 -163 319 -341.5t103 -389.5q0 -214 -131 -351t-326 -137q-188 0 -322 134t-134 327t134 326t322 133q36 0 77 -10t87 -29q-32 68 -83 136t-134 151l-307 -178l-18 36l290 174q-42 43 -110.5 92t-167.5 107l26 37q61 -30 138.5 -74t199.5 -116l289 163
l21 -34zM528 10q129 0 199 110t70 312q0 203 -70 312.5t-199 109.5q-128 0 -198 -109.5t-70 -312.5q0 -202 70 -312t198 -110z" />
    <glyph glyph-name="ntilde" unicode="&#xf1;" horiz-adv-x="1139" 
d="M375 307q0 -200 25.5 -239t115.5 -39h8v-29h-454v29h8q88 0 113.5 37.5t25.5 240.5v324q0 101 -31 138.5t-116 43.5v23q78 11 146.5 27t133.5 38l12 -4l13 -119q64 60 136 87.5t165 27.5q146 0 204 -58.5t58 -230.5v-297q0 -198 25.5 -238t115.5 -40h8v-29h-454v29h8
q89 0 114 39t25 239v293q0 121 -46.5 182.5t-137.5 61.5q-50 0 -96.5 -22.5t-79.5 -61.5q-24 -29 -34.5 -67t-10.5 -109v-52v-225zM802 1298h54q-20 -102 -68 -152t-127 -50q-15 0 -33 2.5t-41 7.5l-109 27q-12 3 -26 4.5t-30 1.5q-33 0 -53.5 -21t-35.5 -69h-51
q19 106 68 159.5t129 53.5q19 0 34 -2t29 -7l111 -30q16 -4 30 -6.5t25 -2.5q37 0 58 18.5t36 65.5z" />
    <glyph glyph-name="ograve" unicode="&#xf2;" horiz-adv-x="1057" 
d="M528 854q-128 0 -198 -109.5t-70 -312.5q0 -202 70 -312t198 -110q129 0 199 110t70 312q0 203 -70 312.5t-199 109.5zM528 891q189 0 323 -133t134 -326t-134.5 -327t-322.5 -134t-322 134t-134 327t134 326t322 133zM415 1300l289 -299h-67l-330 207q-31 21 -46.5 41
t-15.5 41q0 30 21 50t51 20q21 0 42 -12t56 -48z" />
    <glyph glyph-name="oacute" unicode="&#xf3;" horiz-adv-x="1057" 
d="M528 854q-128 0 -198 -109.5t-70 -312.5q0 -202 70 -312t198 -110q129 0 199 110t70 312q0 203 -70 312.5t-199 109.5zM528 891q189 0 323 -133t134 -326t-134.5 -327t-322.5 -134t-322 134t-134 327t134 326t322 133zM749 1208l-330 -207h-67l289 299q35 36 56 48t42 12
q30 0 51 -20t21 -50q0 -21 -15.5 -41t-46.5 -41z" />
    <glyph glyph-name="ocircumflex" unicode="&#xf4;" horiz-adv-x="1057" 
d="M528 854q-128 0 -198 -109.5t-70 -312.5q0 -202 70 -312t198 -110q129 0 199 110t70 312q0 203 -70 312.5t-199 109.5zM528 891q189 0 323 -133t134 -326t-134.5 -327t-322.5 -134t-322 134t-134 327t134 326t322 133zM469 1352h118l232 -351h-58l-233 211l-233 -211h-58
z" />
    <glyph glyph-name="otilde" unicode="&#xf5;" horiz-adv-x="1057" 
d="M528 854q-128 0 -198 -109.5t-70 -312.5q0 -202 70 -312t198 -110q129 0 199 110t70 312q0 203 -70 312.5t-199 109.5zM528 891q189 0 323 -133t134 -326t-134.5 -327t-322.5 -134t-322 134t-134 327t134 326t322 133zM761 1298h54q-20 -102 -68 -152t-127 -50
q-15 0 -33 2.5t-41 7.5l-109 27q-12 3 -26 4.5t-30 1.5q-33 0 -53.5 -21t-35.5 -69h-51q19 106 68 159.5t129 53.5q19 0 34 -2t29 -7l111 -30q16 -4 30 -6.5t25 -2.5q37 0 58 18.5t36 65.5z" />
    <glyph glyph-name="odieresis" unicode="&#xf6;" horiz-adv-x="1057" 
d="M528 854q-128 0 -198 -109.5t-70 -312.5q0 -202 70 -312t198 -110q129 0 199 110t70 312q0 203 -70 312.5t-199 109.5zM528 891q189 0 323 -133t134 -326t-134.5 -327t-322.5 -134t-322 134t-134 327t134 326t322 133zM704 1257q40 0 69 -30t29 -70q0 -43 -28 -71.5
t-70 -28.5t-71 29t-29 71q0 40 30 70t70 30zM352 1257q40 0 70 -30t30 -70q0 -42 -29 -71t-71 -29t-70 28.5t-28 71.5q0 40 29 70t69 30z" />
    <glyph glyph-name="divide" unicode="&#xf7;" horiz-adv-x="1706" 
d="M854 365q47 0 81 -34t34 -81t-33.5 -81t-81.5 -34t-81.5 33.5t-33.5 81.5t34 81.5t81 33.5zM254 670h1198v-117h-1198v117zM854 1085q48 0 81.5 -33.5t33.5 -80.5q0 -48 -33.5 -81.5t-81.5 -33.5q-49 0 -82 33.5t-33 81.5q0 47 34 80.5t81 33.5z" />
    <glyph glyph-name="oslash" unicode="&#xf8;" horiz-adv-x="1057" 
d="M741 723l-393 -629q28 -41 73.5 -62.5t106.5 -21.5q129 0 199 110t70 312q0 87 -14.5 162.5t-41.5 128.5zM313 139l394 631q-30 40 -76 62t-103 22q-129 0 -198.5 -109.5t-69.5 -312.5q0 -73 13.5 -146t39.5 -147zM152 -119l110 170q-93 72 -141.5 169.5t-48.5 211.5
q0 193 134 326t322 133q58 0 110.5 -14t109.5 -43l75 120h62l-92 -147q95 -68 143.5 -162.5t48.5 -212.5q0 -193 -134.5 -327t-322.5 -134q-57 0 -117 16t-104 44l-94 -150h-61z" />
    <glyph glyph-name="ugrave" unicode="&#xf9;" horiz-adv-x="1124" 
d="M764 557q0 196 -25.5 236.5t-113.5 40.5h-11v28h306v-649q0 -100 27.5 -137t105.5 -43l-1 -23q-79 -9 -245 -32q-29 -5 -43 -7v113q-61 -58 -133.5 -85.5t-167.5 -27.5q-148 0 -206 58.5t-58 228.5v299q0 196 -25.5 236.5t-114.5 40.5h-10v28h307v-600
q0 -121 46.5 -182.5t138.5 -61.5q49 0 96 22.5t80 61.5q25 30 36 69.5t11 123.5v37v225zM450 1300l289 -299h-67l-330 207q-31 21 -46.5 41t-15.5 41q0 30 21 50t51 20q21 0 42 -12t56 -48z" />
    <glyph glyph-name="uacute" unicode="&#xfa;" horiz-adv-x="1124" 
d="M764 557q0 196 -25.5 236.5t-113.5 40.5h-11v28h306v-649q0 -100 27.5 -137t105.5 -43l-1 -23q-79 -9 -245 -32q-29 -5 -43 -7v113q-61 -58 -133.5 -85.5t-167.5 -27.5q-148 0 -206 58.5t-58 228.5v299q0 196 -25.5 236.5t-114.5 40.5h-10v28h307v-600
q0 -121 46.5 -182.5t138.5 -61.5q49 0 96 22.5t80 61.5q25 30 36 69.5t11 123.5v37v225zM784 1208l-330 -207h-67l289 299q35 36 56 48t42 12q30 0 51 -20t21 -50q0 -21 -15.5 -41t-46.5 -41z" />
    <glyph glyph-name="ucircumflex" unicode="&#xfb;" horiz-adv-x="1124" 
d="M764 557q0 196 -25.5 236.5t-113.5 40.5h-11v28h306v-649q0 -100 27.5 -137t105.5 -43l-1 -23q-79 -9 -245 -32q-29 -5 -43 -7v113q-61 -58 -133.5 -85.5t-167.5 -27.5q-148 0 -206 58.5t-58 228.5v299q0 196 -25.5 236.5t-114.5 40.5h-10v28h307v-600
q0 -121 46.5 -182.5t138.5 -61.5q49 0 96 22.5t80 61.5q25 30 36 69.5t11 123.5v37v225zM504 1352h118l232 -351h-58l-233 211l-233 -211h-58z" />
    <glyph glyph-name="udieresis" unicode="&#xfc;" horiz-adv-x="1124" 
d="M764 557q0 196 -25.5 236.5t-113.5 40.5h-11v28h306v-649q0 -100 27.5 -137t105.5 -43l-1 -23q-79 -9 -245 -32q-29 -5 -43 -7v113q-61 -58 -133.5 -85.5t-167.5 -27.5q-148 0 -206 58.5t-58 228.5v299q0 196 -25.5 236.5t-114.5 40.5h-10v28h307v-600
q0 -121 46.5 -182.5t138.5 -61.5q49 0 96 22.5t80 61.5q25 30 36 69.5t11 123.5v37v225zM739 1257q40 0 69 -30t29 -70q0 -43 -28 -71.5t-70 -28.5t-71 29t-29 71q0 40 30 70t70 30zM387 1257q40 0 70 -30t30 -70q0 -42 -29 -71t-71 -29t-70 28.5t-28 71.5q0 40 29 70t69 30
z" />
    <glyph glyph-name="yacute" unicode="&#xfd;" horiz-adv-x="915" 
d="M410 -182q-67 -159 -115.5 -209.5t-116.5 -50.5q-41 0 -66.5 21.5t-25.5 53.5q0 26 21 45t51 19q16 0 47 -11.5t47 -11.5q25 0 45 18t43 64q44 91 60 138t16 81q0 23 -11.5 63.5t-33.5 96.5l-187 477q-49 127 -94 174.5t-110 47.5v28h442v-28q-65 -7 -90 -26t-25 -58
q0 -19 7 -46.5t20 -58.5l184 -477l176 430q18 43 26.5 78.5t8.5 64.5q0 47 -27.5 68t-93.5 25v28h314v-28q-52 -9 -91 -55t-96 -183zM680 1208l-330 -207h-67l289 299q35 36 56 48t42 12q30 0 51 -20t21 -50q0 -21 -15.5 -41t-46.5 -41z" />
    <glyph glyph-name="thorn" unicode="&#xfe;" horiz-adv-x="1096" 
d="M360 563v-262q0 -136 54 -211.5t151 -75.5q132 0 200.5 106.5t68.5 311.5q0 202 -67.5 310t-193.5 108q-102 0 -157.5 -74t-55.5 -213zM360 80v-197q0 -192 31.5 -232t151.5 -40v-29h-488v29h8q89 0 114.5 37.5t25.5 240.5v1291q0 100 -31 137t-117 43v22q66 6 136.5 15
t168.5 24v-633q58 54 115 78.5t123 24.5q181 0 301.5 -132t120.5 -329q0 -202 -113 -330.5t-282 -128.5q-89 0 -152 26t-113 83z" />
    <glyph glyph-name="ydieresis" unicode="&#xff;" horiz-adv-x="915" 
d="M410 -182q-67 -159 -115.5 -209.5t-116.5 -50.5q-41 0 -66.5 21.5t-25.5 53.5q0 26 21 45t51 19q16 0 47 -11.5t47 -11.5q25 0 45 18t43 64q44 91 60 138t16 81q0 23 -11.5 63.5t-33.5 96.5l-187 477q-49 127 -94 174.5t-110 47.5v28h442v-28q-65 -7 -90 -26t-25 -58
q0 -19 7 -46.5t20 -58.5l184 -477l176 430q18 43 26.5 78.5t8.5 64.5q0 47 -27.5 68t-93.5 25v28h314v-28q-52 -9 -91 -55t-96 -183zM635 1257q40 0 69 -30t29 -70q0 -43 -28 -71.5t-70 -28.5t-71 29t-29 71q0 40 30 70t70 30zM283 1257q40 0 70 -30t30 -70q0 -42 -29 -71
t-71 -29t-70 28.5t-28 71.5q0 40 29 70t69 30z" />
    <glyph glyph-name="Cacute" unicode="&#x106;" horiz-adv-x="1419" 
d="M1313 406q-13 -202 -156.5 -320.5t-378.5 -118.5q-310 0 -493 183.5t-183 498.5q0 343 198.5 555.5t512.5 212.5q113 0 243 -42t150 -42q19 0 34 12t26 35h30l11 -440h-27q-58 209 -172 321.5t-268 112.5q-219 0 -351.5 -192.5t-132.5 -509.5q0 -296 132.5 -465.5
t361.5 -169.5q179 0 295 100t131 269h37zM1034 1734l-330 -207h-67l289 299q35 36 56 48t42 12q30 0 51 -20t21 -50q0 -21 -15.5 -41t-46.5 -41z" />
    <glyph glyph-name="cacute" unicode="&#x107;" horiz-adv-x="846" 
d="M817 213q-18 -115 -102 -178.5t-217 -63.5q-193 0 -310.5 120t-117.5 317q0 212 123 347.5t313 135.5q120 0 202.5 -49t82.5 -115q0 -39 -20.5 -60.5t-57.5 -21.5q-38 0 -58 21.5t-30 74.5q-13 68 -39 90.5t-78 22.5q-116 0 -182 -114.5t-66 -317.5q0 -188 77 -291.5
t216 -103.5q93 0 152.5 48.5t76.5 137.5h35zM719 1208l-330 -207h-67l289 299q35 36 56 48t42 12q30 0 51 -20t21 -50q0 -21 -15.5 -41t-46.5 -41z" />
    <glyph glyph-name="Ccaron" unicode="&#x10c;" horiz-adv-x="1419" 
d="M1313 406q-13 -202 -156.5 -320.5t-378.5 -118.5q-310 0 -493 183.5t-183 498.5q0 343 198.5 555.5t512.5 212.5q113 0 243 -42t150 -42q19 0 34 12t26 35h30l11 -440h-27q-58 209 -172 321.5t-268 112.5q-219 0 -351.5 -192.5t-132.5 -509.5q0 -296 132.5 -465.5
t361.5 -169.5q179 0 295 100t131 269h37zM522 1878h58l233 -211l233 211h58l-232 -351h-118z" />
    <glyph glyph-name="ccaron" unicode="&#x10d;" horiz-adv-x="846" 
d="M817 213q-18 -115 -102 -178.5t-217 -63.5q-193 0 -310.5 120t-117.5 317q0 212 123 347.5t313 135.5q120 0 202.5 -49t82.5 -115q0 -39 -20.5 -60.5t-57.5 -21.5q-38 0 -58 21.5t-30 74.5q-13 68 -39 90.5t-78 22.5q-116 0 -182 -114.5t-66 -317.5q0 -188 77 -291.5
t216 -103.5q93 0 152.5 48.5t76.5 137.5h35zM207 1352h58l233 -211l233 211h58l-232 -351h-118z" />
    <glyph glyph-name="dcroat" unicode="&#x111;" horiz-adv-x="1096" 
d="M735 1180q0 98 -30.5 136t-114.5 44v22q87 9 161 18.5t140 20.5v-303h194v-47h-194v-858q0 -100 28 -137t105 -43v-23q-81 -9 -151.5 -18.5t-137.5 -20.5v109q-49 -57 -112 -83t-152 -26q-167 0 -281 128t-114 323q0 203 120 336t302 133q66 0 123.5 -25t113.5 -78v283
h-352v47h352v62zM735 301v262q0 139 -55 213t-158 74q-125 0 -192.5 -108t-67.5 -310q0 -205 68.5 -311.5t199.5 -106.5q97 0 151 75.5t54 211.5z" />
    <glyph glyph-name="Gbreve" unicode="&#x11e;" horiz-adv-x="1546" 
d="M1337 104l-65 7q-152 -80 -266.5 -112t-235.5 -32q-305 0 -486.5 189.5t-181.5 509.5q0 330 200.5 540.5t510.5 210.5q113 0 243 -42t150 -42q19 0 34 12t26 35h30l11 -440h-27q-58 209 -172 321.5t-268 112.5q-222 0 -353 -195t-131 -526q0 -291 130 -467t341 -176
q143 0 224.5 78t81.5 215q0 106 -48.5 151t-166.5 50v26h616v-26q-128 -10 -164.5 -48t-36.5 -190q0 -34 3 -125q1 -25 1 -37zM481 1839h51q19 -74 76 -108t166 -34t166 34t74 108h51q-20 -134 -94 -203.5t-197 -69.5q-122 0 -197.5 70t-95.5 203z" />
    <glyph glyph-name="gbreve" unicode="&#x11f;" horiz-adv-x="877" 
d="M434 344q72 0 110 66t38 190q0 125 -38.5 191.5t-109.5 66.5q-72 0 -111.5 -67.5t-39.5 -190.5q0 -122 39.5 -189t111.5 -67zM350 326q-113 32 -168 96t-55 164q0 128 88.5 216.5t212.5 88.5q67 0 123 -18.5t98 -55.5q37 38 78.5 57t89.5 19q46 0 78.5 -23.5t32.5 -54.5
q0 -24 -14.5 -37.5t-41.5 -13.5q-30 0 -61 40t-57 40q-14 0 -33 -10.5t-49 -34.5q36 -41 52.5 -91t16.5 -116q0 -118 -71 -193t-199 -92q-27 -3 -80 -8q-188 -17 -188 -98q0 -36 29 -52t96 -16q21 0 84 2t104 2q182 0 266 -65.5t84 -206.5q0 -137 -119 -221t-313 -84
q-184 0 -285.5 64t-101.5 179q0 66 36.5 110t90.5 44q47 0 70.5 -21.5t23.5 -64.5q0 -6 -0.5 -11t-1.5 -9l-8 -1q-8 19 -22.5 27t-38.5 8q-44 0 -69.5 -29t-25.5 -79q0 -80 78.5 -129t208.5 -49q156 0 247 61t91 164q0 91 -64 126.5t-280 35.5q-144 0 -207 36t-63 117
q0 83 60 130t177 57zM145 1313h51q19 -74 76 -108t166 -34t166 34t74 108h51q-20 -134 -94 -203.5t-197 -69.5q-122 0 -197.5 70t-95.5 203z" />
    <glyph glyph-name="Idotaccent" unicode="&#x130;" horiz-adv-x="807" 
d="M717 1384v-28h-17q-108 0 -146 -74.5t-38 -411.5v-22v-334q0 -337 38 -411t146 -74h17v-29h-627v29h16q108 0 145.5 72.5t37.5 392.5v43v354q0 319 -37.5 392t-145.5 73h-16v28h627zM403 1790q43 0 73.5 -31.5t30.5 -75.5q0 -43 -30.5 -73.5t-73.5 -30.5t-73.5 30.5
t-30.5 73.5t31 75t73 32z" />
    <glyph glyph-name="dotlessi" unicode="&#x131;" horiz-adv-x="578" 
d="M375 307q0 -200 25.5 -239t115.5 -39h8v-29h-454v29h8q88 0 113.5 37.5t25.5 240.5v324q0 101 -31 138.5t-116 43.5v23q84 13 159 29t146 36v-594z" />
    <glyph glyph-name="Lslash" unicode="&#x141;" horiz-adv-x="1309" 
d="M512 418q0 -259 53.5 -318t231.5 -59q216 0 326 89t139 288h28l-14 -418h-1182v29h17q108 0 146 74t38 411v23v67l-285 -190v65l285 191v200q0 337 -38 411.5t-146 74.5h-17v28h617v-28h-17q-107 0 -144.5 -73t-37.5 -392v-43v-60l377 254v-65l-377 -256v-303z" />
    <glyph glyph-name="lslash" unicode="&#x142;" horiz-adv-x="584" 
d="M371 791l192 145v-59l-192 -146v-424q0 -200 25.5 -239t115.5 -39h8v-29h-457v29h9q90 0 115.5 39t25.5 239v338l-195 -143v57l195 146v475q0 100 -31 137t-119 43v22q67 6 138 15t170 24v-630z" />
    <glyph glyph-name="OE" unicode="&#x152;" horiz-adv-x="2073" 
d="M1053 326v733q0 197 -44 252t-163 55q-227 0 -363.5 -183t-136.5 -491q0 -311 138 -491.5t374 -180.5q110 0 152.5 56t42.5 250zM1270 418q0 -260 47 -318.5t215 -58.5q194 0 303 94t133 283h29l-15 -418h-647q-147 0 -314.5 -11.5t-186.5 -11.5q-175 0 -297 44.5
t-228 144.5q-113 107 -166 232.5t-53 287.5q0 124 41 238t121 213q111 135 257 201.5t333 66.5q34 0 189.5 -10.5t277.5 -10.5h555l14 -331h-27q-33 158 -129 223t-305 65h-147v-587h10q148 0 208.5 53.5t64.5 187.5h26v-546h-27q-7 149 -68.5 208.5t-205.5 59.5h-8v-299z
" />
    <glyph glyph-name="oe" unicode="&#x153;" horiz-adv-x="1616" 
d="M852 133q-70 -77 -158 -119.5t-180 -42.5q-182 0 -312 134t-130 327t130 326t312 133q96 0 186 -44.5t164 -129.5q60 81 153.5 127.5t196.5 46.5q144 0 234 -86t90 -223v-9h-573q-6 -40 -8.5 -63.5t-2.5 -36.5q0 -208 82 -329t219 -121q96 0 166.5 50.5t102.5 143.5h39
q-34 -117 -128.5 -181.5t-232.5 -64.5q-116 0 -206 41.5t-144 120.5zM973 612l424 1q-8 114 -60.5 177.5t-138.5 63.5q-87 0 -147 -64t-78 -178zM518 10q123 0 189.5 110t66.5 312q0 203 -66.5 312.5t-189.5 109.5t-190.5 -109.5t-67.5 -312.5q0 -202 67.5 -312t190.5 -110z
" />
    <glyph glyph-name="Scedilla" unicode="&#x15e;" horiz-adv-x="1139" 
d="M137 -10l-18 434h26q37 -196 145 -305t265 -109q117 0 187.5 76t70.5 201q0 105 -60 178t-218 149q-239 114 -311 198.5t-72 211.5q0 169 108.5 281t269.5 112q105 0 198.5 -38t94.5 -38q23 0 33.5 11.5t16.5 42.5h30l19 -385h-25q-60 190 -145 277t-209 87
q-94 0 -154.5 -61t-60.5 -158q0 -89 52 -149.5t214 -139.5q40 -20 131.5 -62.5t122.5 -64.5q94 -67 135 -148.5t41 -199.5q0 -186 -127.5 -306t-329.5 -120q-102 0 -215.5 41t-126.5 41q-23 0 -36.5 -14t-18.5 -43h-33zM497 0h64v-112q24 3 40.5 4t28.5 2q80 0 127.5 -45
t47.5 -119q0 -83 -58.5 -129.5t-161.5 -46.5q-62 0 -135 20t-155 59l26 56q66 -34 129 -53t105 -19q61 0 89.5 25.5t28.5 81.5q0 43 -27.5 68.5t-74.5 25.5q-19 0 -36.5 -1.5t-36.5 -4.5z" />
    <glyph glyph-name="scedilla" unicode="&#x15f;" horiz-adv-x="793" 
d="M109 -14v299h18q40 -150 101 -212.5t165 -62.5q70 0 111 39.5t41 108.5q0 59 -33 102.5t-119 91.5q-159 89 -203.5 149.5t-44.5 145.5q0 104 69.5 174t170.5 70q57 0 117.5 -24.5t66.5 -24.5q16 0 26 8t17 27h19v-256h-19q-24 114 -79.5 172.5t-139.5 58.5
q-56 0 -92.5 -37t-36.5 -94q0 -56 31 -95t135 -96q163 -86 210.5 -149t47.5 -154q0 -115 -77.5 -185.5t-204.5 -70.5q-72 0 -142.5 29t-75.5 29q-16 0 -30.5 -10.5t-30.5 -32.5h-18zM325 0h64v-112q24 3 40.5 4t28.5 2q80 0 127.5 -45t47.5 -119q0 -83 -58.5 -129.5
t-161.5 -46.5q-62 0 -135 20t-155 59l26 56q66 -34 129 -53t105 -19q61 0 89.5 25.5t28.5 81.5q0 43 -27.5 68.5t-74.5 25.5q-19 0 -36.5 -1.5t-36.5 -4.5z" />
    <glyph glyph-name="Scaron" unicode="&#x160;" horiz-adv-x="1139" 
d="M137 -10l-18 434h26q37 -196 145 -305t265 -109q117 0 187.5 76t70.5 201q0 105 -60 178t-218 149q-239 114 -311 198.5t-72 211.5q0 169 108.5 281t269.5 112q105 0 198.5 -38t94.5 -38q23 0 33.5 11.5t16.5 42.5h30l19 -385h-25q-60 190 -145 277t-209 87
q-94 0 -154.5 -61t-60.5 -158q0 -89 52 -149.5t214 -139.5q40 -20 131.5 -62.5t122.5 -64.5q94 -67 135 -148.5t41 -199.5q0 -186 -127.5 -306t-329.5 -120q-102 0 -215.5 41t-126.5 41q-23 0 -36.5 -14t-18.5 -43h-33zM278 1878h58l233 -211l233 211h58l-232 -351h-118z
" />
    <glyph glyph-name="scaron" unicode="&#x161;" horiz-adv-x="793" 
d="M109 -14v299h18q40 -150 101 -212.5t165 -62.5q70 0 111 39.5t41 108.5q0 59 -33 102.5t-119 91.5q-159 89 -203.5 149.5t-44.5 145.5q0 104 69.5 174t170.5 70q57 0 117.5 -24.5t66.5 -24.5q16 0 26 8t17 27h19v-256h-19q-24 114 -79.5 172.5t-139.5 58.5
q-56 0 -92.5 -37t-36.5 -94q0 -56 31 -95t135 -96q163 -86 210.5 -149t47.5 -154q0 -115 -77.5 -185.5t-204.5 -70.5q-72 0 -142.5 29t-75.5 29q-16 0 -30.5 -10.5t-30.5 -32.5h-18zM106 1352h58l233 -211l233 211h58l-232 -351h-118z" />
    <glyph glyph-name="Ydieresis" unicode="&#x178;" horiz-adv-x="1247" 
d="M750 397q0 -231 37.5 -299.5t144.5 -68.5h16v-29h-616v29h16q107 0 144.5 68.5t37.5 299.5v189l-307 534q-6 11 -17 30q-114 198 -243 206v28h594v-28q-79 -4 -112 -23.5t-33 -62.5q0 -20 10.5 -54.5t26.5 -62.5l276 -494l211 367q41 70 65.5 133.5t24.5 95.5
q0 50 -37.5 74.5t-113.5 26.5l-1 28h441v-28q-139 -6 -331 -338l-7 -12l-227 -394v-215zM801 1783q40 0 69 -30t29 -70q0 -43 -28 -71.5t-70 -28.5t-71 29t-29 71q0 40 30 70t70 30zM449 1783q40 0 70 -30t30 -70q0 -42 -29 -71t-71 -29t-70 28.5t-28 71.5q0 40 29 70t69 30
z" />
    <glyph glyph-name="Zcaron" unicode="&#x17d;" horiz-adv-x="1395" 
d="M80 0v12l864 1329h-319q-235 0 -340 -72.5t-144 -252.5h-26l24 368h1071v-12l-852 -1329h308q286 0 419 86.5t195 306.5h29l-23 -436h-1206zM407 1878h58l233 -211l233 211h58l-232 -351h-118z" />
    <glyph glyph-name="zcaron" unicode="&#x17e;" horiz-adv-x="909" 
d="M29 0v10l579 815h-194q-126 0 -189.5 -47.5t-87.5 -159.5h-24l30 244h658v-14l-574 -809h234q175 0 253 56.5t113 201.5h27l-31 -297h-794zM164 1352h58l233 -211l233 211h58l-232 -351h-118z" />
    <glyph glyph-name="florin" unicode="&#x192;" horiz-adv-x="1081" 
d="M491 833l-210 1l8 43h211q32 265 134 402.5t267 137.5q93 0 147 -34t54 -93q0 -34 -19.5 -53.5t-54.5 -19.5q-39 0 -61.5 17t-34.5 56l-5 15q-22 73 -65 73q-64 0 -112.5 -120t-90.5 -381h213l-8 -43h-211q-120 -831 -231 -1044.5t-326 -213.5q-86 0 -140 40t-54 101
q0 38 21.5 60t58.5 22q33 0 53 -19t26 -56q2 -10 4 -28q11 -83 70 -83q165 0 349 1173z" />
    <glyph glyph-name="circumflex" unicode="&#x2c6;" 
d="M453 1352h118l232 -351h-58l-233 211l-233 -211h-58z" />
    <glyph glyph-name="caron" unicode="&#x2c7;" 
d="M221 1352h58l233 -211l233 211h58l-232 -351h-118z" />
    <glyph glyph-name="breve" unicode="&#x2d8;" 
d="M219 1313h51q19 -74 76 -108t166 -34t166 34t74 108h51q-20 -134 -94 -203.5t-197 -69.5q-122 0 -197.5 70t-95.5 203z" />
    <glyph glyph-name="dotaccent" unicode="&#x2d9;" 
d="M512 1264q43 0 73.5 -31.5t30.5 -75.5q0 -43 -30.5 -73.5t-73.5 -30.5t-73.5 30.5t-30.5 73.5t31 75t73 32z" />
    <glyph glyph-name="ring" unicode="&#x2da;" 
d="M512 1374q-61 0 -104 -44t-43 -107q0 -62 43 -105t104 -43q62 0 107 43.5t45 104.5q0 62 -45 106.5t-107 44.5zM512 1464q100 0 171 -70t71 -169q0 -101 -70.5 -171.5t-171.5 -70.5q-100 0 -170 70t-70 172q0 101 70 170t170 69z" />
    <glyph glyph-name="ogonek" unicode="&#x2db;" 
d="M600 31h49q-91 -72 -135.5 -137.5t-44.5 -129.5q0 -54 27.5 -86t72.5 -32q39 0 69 18.5t50 54.5l29 -18q-37 -72 -91.5 -111t-119.5 -39q-70 0 -114 41t-44 103q0 88 62 170.5t190 165.5z" />
    <glyph glyph-name="tilde" unicode="&#x2dc;" 
d="M745 1298h54q-20 -102 -68 -152t-127 -50q-15 0 -33 2.5t-41 7.5l-109 27q-12 3 -26 4.5t-30 1.5q-33 0 -53.5 -21t-35.5 -69h-51q19 106 68 159.5t129 53.5q19 0 34 -2t29 -7l111 -30q16 -4 30 -6.5t25 -2.5q37 0 58 18.5t36 65.5z" />
    <glyph glyph-name="hungarumlaut" unicode="&#x2dd;" 
d="M858 1217l-237 -216h-60l180 289q24 38 48.5 55t54.5 17q24 0 41.5 -17.5t17.5 -41.5q0 -23 -11 -44.5t-34 -41.5zM582 1219l-205 -218h-58l144 281q23 43 44.5 61.5t47.5 18.5q28 0 48 -19t20 -47q0 -15 -11 -36t-30 -41z" />
    <glyph glyph-name="Omega" unicode="&#x3a9;" horiz-adv-x="1567" 
d="M1100 188v-26h313l66 203h61l-108 -365h-500q134 233 202 451t68 413q0 271 -107.5 416t-308.5 145t-309 -145t-108 -416q0 -195 68 -411t204 -453h-500l-110 365h61l68 -203h311v26q-165 203 -234 361.5t-69 327.5q0 272 174.5 446t443.5 174t443 -174.5t174 -445.5
q0 -169 -69 -327.5t-234 -361.5z" />
    <glyph glyph-name="pi" unicode="&#x3c0;" horiz-adv-x="1354" 
d="M1329 885l-35 -162h-329q-34 -179 -54 -452q-23 -314 -120 -314q-38 0 -58 24.5t-20 69.5q0 58 77 280.5t117 391.5h-375q-33 -177 -53 -448q-25 -318 -123 -318q-37 0 -57 25t-20 71q0 56 77.5 277t118.5 393h-133q-136 0 -180 -43.5t-72 -171.5h-59q37 207 117.5 292
t238.5 85h942z" />
    <glyph glyph-name="endash" unicode="&#x2013;" 
d="M0 401v84h1024v-84h-1024z" />
    <glyph glyph-name="emdash" unicode="&#x2014;" horiz-adv-x="2048" 
d="M0 401v84h2048v-84h-2048z" />
    <glyph glyph-name="quoteleft" unicode="&#x2018;" horiz-adv-x="541" 
d="M238 1119q15 6 31 10t30 4q45 0 72.5 -30t27.5 -79q0 -46 -35 -80.5t-83 -34.5q-59 0 -96.5 45t-37.5 119q0 106 67.5 195t193.5 149l12 -22q-86 -55 -132.5 -125t-49.5 -151z" />
    <glyph glyph-name="quoteright" unicode="&#x2019;" horiz-adv-x="541" 
d="M321 1210q-20 -9 -34 -12.5t-27 -3.5q-43 0 -71.5 29.5t-28.5 74.5q0 51 34.5 85t84.5 34q58 0 95.5 -45t37.5 -119q0 -106 -67.5 -195.5t-192.5 -148.5l-13 23q87 55 133 125.5t49 152.5z" />
    <glyph glyph-name="quotesinglbase" unicode="&#x201a;" horiz-adv-x="541" 
d="M301 14q-16 -7 -31 -10.5t-30 -3.5q-45 0 -74 29t-29 73q0 51 34.5 85t84.5 34q59 0 97 -45t38 -119q0 -105 -68 -193.5t-194 -148.5l-12 23q88 55 134.5 125t49.5 151z" />
    <glyph glyph-name="quotedblleft" unicode="&#x201c;" horiz-adv-x="915" 
d="M612 1119q16 6 31 9.5t31 4.5q44 0 72 -30t28 -79q0 -46 -35.5 -80.5t-83.5 -34.5q-60 0 -96.5 44.5t-36.5 119.5q0 106 67 195t193 149l13 -22q-87 -55 -133 -125t-50 -151zM238 1119q15 6 31 10t30 4q45 0 72.5 -30t27.5 -79q0 -46 -35 -80.5t-83 -34.5q-59 0 -96.5 45
t-37.5 119q0 106 67.5 195t193.5 149l12 -22q-86 -55 -132.5 -125t-49.5 -151z" />
    <glyph glyph-name="quotedblright" unicode="&#x201d;" horiz-adv-x="915" 
d="M321 1210q-20 -9 -34 -12.5t-27 -3.5q-43 0 -71.5 29.5t-28.5 74.5q0 51 34.5 85t84.5 34q58 0 95.5 -45t37.5 -119q0 -106 -67.5 -195.5t-192.5 -148.5l-13 23q87 55 133 125.5t49 152.5zM696 1210q-20 -9 -34 -12.5t-27 -3.5q-44 0 -72 29.5t-28 74.5q0 51 34.5 85
t83.5 34q59 0 96 -45t37 -119q0 -106 -67 -195.5t-193 -148.5l-12 23q87 55 133 125.5t49 152.5z" />
    <glyph glyph-name="quotedblbase" unicode="&#x201e;" horiz-adv-x="915" 
d="M675 14q-16 -7 -30.5 -10.5t-30.5 -3.5q-44 0 -73 29t-29 73q0 51 34.5 85t84.5 34q59 0 96 -45t37 -119q0 -105 -67 -193t-193 -149l-12 23q87 55 134 125.5t49 150.5zM303 14q-16 -7 -31 -10.5t-30 -3.5q-45 0 -74 29t-29 73q0 51 34.5 85t84.5 34q59 0 96 -45t37 -119
q0 -106 -67 -194.5t-193 -147.5l-12 23q88 55 134.5 125.5t49.5 150.5z" />
    <glyph glyph-name="dagger" unicode="&#x2020;" horiz-adv-x="995" 
d="M473 -319q0 238 -23.5 449.5t-72.5 414.5q47 71 72 161t30 207q-75 -2 -167 -44t-130 -42q-48 0 -77 27t-29 72q0 50 30 79t82 29q33 0 124 -40t163 -40h4v13q0 107 -45 218.5t-45 127.5q0 47 30 75.5t81 28.5q48 0 77 -28.5t29 -75.5q0 -11 -45 -125.5t-45 -226.5v-7h4
q72 0 163.5 40t123.5 40q52 0 82.5 -28t30.5 -76q0 -49 -29 -76t-82 -27q-33 0 -124 42t-169 44q5 -116 30 -206.5t72 -161.5q-47 -169 -70.5 -384.5t-23.5 -479.5h-51z" />
    <glyph glyph-name="daggerdbl" unicode="&#x2021;" horiz-adv-x="995" 
d="M377 545q47 74 72 163.5t30 204.5q-75 -2 -167 -44t-130 -42q-48 0 -77 27t-29 72q0 50 30 79t82 29q33 0 124 -40t163 -40h4v13q0 107 -45 218.5t-45 127.5q0 47 30 75.5t81 28.5q48 0 77 -28.5t29 -75.5q0 -11 -45 -125.5t-45 -226.5v-7h4q72 0 163.5 40t123.5 40
q52 0 82.5 -28t30.5 -76q0 -49 -29 -76t-82 -27q-33 0 -124 42t-169 44q5 -115 30 -205.5t72 -162.5q-47 -72 -72 -163.5t-29 -207.5q74 2 166.5 44t129.5 42q50 0 78.5 -27t28.5 -75q0 -47 -31 -76t-80 -29q-35 0 -126 40t-163 40h-4v-12q0 -108 44 -219.5t44 -126.5
q0 -48 -29 -76.5t-79 -28.5q-49 0 -78 29t-29 76q0 10 45 125t45 227v6h-4q-72 0 -164 -40t-127 -40q-49 0 -78.5 30t-29.5 79q0 44 29 71t77 27q38 0 130 -42t167 -44q-5 117 -30 208t-72 163z" />
    <glyph glyph-name="bullet" unicode="&#x2022;" horiz-adv-x="1208" 
d="M307 762q0 123 87 209t210 86q122 0 208.5 -86.5t86.5 -208.5t-87.5 -209.5t-209.5 -87.5q-123 0 -209 87t-86 210z" />
    <glyph glyph-name="ellipsis" unicode="&#x2026;" horiz-adv-x="2048" 
d="M342 -16q-47 0 -82.5 35.5t-35.5 82.5q0 50 34.5 84.5t83.5 34.5t84 -34.5t35 -84.5q0 -49 -35 -83.5t-84 -34.5zM1024 -16q-47 0 -82.5 35.5t-35.5 82.5q0 50 34.5 84.5t83.5 34.5t84 -34.5t35 -84.5q0 -49 -35 -83.5t-84 -34.5zM1708 -16q-47 0 -82.5 35.5t-35.5 82.5
q0 50 34.5 84.5t83.5 34.5t84 -34.5t35 -84.5q0 -49 -35 -83.5t-84 -34.5z" />
    <glyph glyph-name="perthousand" unicode="&#x2030;" horiz-adv-x="2355" 
d="M1976 6q74 0 114 103t40 292t-40 291.5t-114 102.5q-72 0 -112.5 -103.5t-40.5 -290.5t40.5 -291t112.5 -104zM1978 -35q-126 0 -218.5 128t-92.5 308q0 181 92.5 308t218.5 127q127 0 218.5 -126.5t91.5 -308.5t-91.5 -309t-218.5 -127zM1243 -35q-126 0 -218.5 128
t-92.5 308q0 181 92.5 308t218.5 127q127 0 218 -126.5t91 -308.5t-91 -309t-218 -127zM377 549q-127 0 -218 126t-91 308q0 181 91.5 307.5t217.5 126.5q127 0 218 -126t91 -308t-91 -308t-218 -126zM1241 6q73 0 113.5 103t40.5 292t-40.5 291.5t-113.5 102.5
q-72 0 -113 -103.5t-41 -290.5t41 -291t113 -104zM377 588q73 0 113 102.5t40 292.5q0 189 -40 292t-113 103q-72 0 -112 -103.5t-40 -291.5t40 -291.5t112 -103.5zM295 -35l944 1452h84l-942 -1452h-86z" />
    <glyph glyph-name="guilsinglleft" unicode="&#x2039;" horiz-adv-x="473" 
d="M72 432l278 365h47l-141 -365l141 -366h-47z" />
    <glyph glyph-name="guilsinglright" unicode="&#x203a;" horiz-adv-x="473" 
d="M403 432l-280 -366h-47l143 366l-143 365h47z" />
    <glyph glyph-name="franc" unicode="&#x20a3;" horiz-adv-x="1882" 
d="M502 537q0 -360 45 -434t180 -74h16v-29h-657v29h16q108 0 145.5 72.5t37.5 392.5v43v354q0 319 -37.5 392t-145.5 73h-16v28h1038l15 -331h-29q-34 159 -129 223.5t-303 64.5h-176v-587q181 6 244 56t69 185h29v-546h-29q-11 151 -75.5 206.5t-237.5 61.5v-180z
M1518 307v-6q0 -190 28.5 -231t131.5 -41h12v-29h-477v29h8q88 0 113.5 37.5t25.5 240.5v324q0 101 -31 138.5t-116 43.5v23q78 11 146.5 27t133.5 38l12 -4q5 -39 7 -85t2 -101q45 90 106.5 135t136.5 45q71 0 110.5 -29t39.5 -80q0 -32 -21 -51.5t-55 -19.5q-44 0 -82 57
t-76 57q-61 0 -108 -101t-47 -247v-170z" />
    <glyph glyph-name="trademark" unicode="&#x2122;" horiz-adv-x="1683" 
d="M788 1438h183l141 -400l148 400h174v-25l-30 -2q-22 -2 -34 -15.5t-12 -37.5v-373q0 -24 12 -37.5t34 -15.5l30 -2v-27h-236v27l31 2q21 2 33 16t12 37v395l-178 -479h-15l-174 479v-395q0 -23 12.5 -37t34.5 -16l31 -2v-27h-197v27l34 2q21 2 32.5 16t11.5 37v371
q0 23 -12.5 37t-34.5 16l-31 2v27zM256 1438h440l11 -178h-25q-8 79 -40.5 115t-96.5 36h-21v-426q0 -23 12 -37t33 -16l31 -2v-27h-248v27l31 2q21 1 33 15.5t12 37.5v426h-20q-64 0 -97 -36t-41 -115h-26z" />
    <glyph glyph-name="partialdiff" unicode="&#x2202;" horiz-adv-x="1044" 
d="M754 604q13 81 19.5 161.5t6.5 158.5q0 140 -39.5 216.5t-111.5 76.5q-53 0 -117 -63.5t-109 -63.5q-29 0 -51 21.5t-22 51.5q0 59 68 105.5t163 46.5q171 0 273 -152.5t102 -412.5q0 -335 -139 -555t-344 -220q-147 0 -241.5 106.5t-94.5 272.5q0 189 108.5 316
t266.5 127q99 0 162.5 -47t99.5 -146zM709 483q0 117 -45 180.5t-127 63.5q-113 0 -184.5 -127.5t-71.5 -333.5q0 -117 44 -178t128 -61q111 0 183.5 128t72.5 328z" />
    <glyph glyph-name="Delta" unicode="&#x2206;" horiz-adv-x="1208" 
d="M555 1212l-389 -1042h768zM596 1497h29l555 -1497h-1151z" />
    <glyph glyph-name="product" unicode="&#x220f;" horiz-adv-x="1595" 
d="M57 1473h1479v-70h-186v-1727h186v-69h-555v69h197v1727h-762v-1727h196v-69h-555v69h187v1727h-187v70z" />
    <glyph glyph-name="summation" unicode="&#x2211;" horiz-adv-x="1434" 
d="M12 1473h1135l98 -340h-74l-67 219q-8 27 -32 39t-73 12h-741l864 -850v-37l-858 -756h893q60 0 77.5 13t29.5 51l71 229h74l-135 -446h-1260v28l959 838l-961 950v50z" />
    <glyph glyph-name="minus" unicode="&#x2212;" horiz-adv-x="1706" 
d="M254 670h1198v-119h-1198v119z" />
    <glyph glyph-name="fraction" unicode="&#x2215;" horiz-adv-x="342" 
d="M-260 -33h-82l944 1450h80z" />
    <glyph glyph-name="periodcentered" unicode="&#x2219;" horiz-adv-x="541" 
d="M270 573q-47 0 -82.5 36t-35.5 83q0 50 34.5 85.5t83.5 35.5t84 -35.5t35 -85.5q0 -48 -35 -83.5t-84 -35.5z" />
    <glyph glyph-name="radical" unicode="&#x221a;" horiz-adv-x="1288" 
d="M1106 1647h182v-82h-119l-594 -1606h-53l-323 893l-119 -43l-23 68l262 92l265 -729z" />
    <glyph glyph-name="infinity" unicode="&#x221e;" horiz-adv-x="1706" 
d="M905 559q51 -95 119 -141.5t156 -46.5q102 0 168.5 71t66.5 181q0 108 -61 179.5t-152 71.5q-85 0 -153.5 -72.5t-143.5 -242.5zM803 666q-51 95 -119 142.5t-154 47.5q-105 0 -171 -71t-66 -183q0 -108 61 -179t152 -71q85 0 152 69t145 245zM866 494
q-71 -138 -148 -201.5t-173 -63.5q-134 0 -226 109t-92 272q0 172 82.5 277.5t214.5 105.5q97 0 172 -63t144 -203q67 138 146 204t175 66q134 0 226 -108.5t92 -272.5q0 -171 -82 -277t-213 -106q-96 0 -169 60t-149 201z" />
    <glyph glyph-name="integral" unicode="&#x222b;" horiz-adv-x="1020" 
d="M301 -268q103 0 116 664q3 141 5 216q12 503 102 719.5t281 216.5q76 0 122 -39t46 -104q0 -48 -31 -77.5t-82 -29.5q-53 0 -85 35t-32 92q0 8 -6 15.5t-14 7.5q-105 0 -119 -634q-3 -157 -6 -245q-10 -308 -31.5 -461t-62.5 -247q-49 -114 -123 -173t-168 -59
q-73 0 -119.5 38t-46.5 97q0 53 31.5 84t83.5 31q47 0 79.5 -29t32.5 -67q0 -24 7.5 -37.5t19.5 -13.5z" />
    <glyph glyph-name="approxequal" unicode="&#x2248;" horiz-adv-x="1706" 
d="M1530 584v-131q-107 -75 -202 -110.5t-187 -35.5q-98 0 -288 69.5t-290 69.5q-82 0 -169.5 -35.5t-215.5 -123.5v131q108 74 203.5 110.5t183.5 36.5q111 0 301.5 -69.5t276.5 -69.5q85 0 173.5 35.5t213.5 122.5zM1530 934v-131q-104 -73 -200 -108.5t-187 -35.5
q-100 0 -290 69t-290 69q-83 0 -171.5 -36t-213.5 -122v131q106 73 202 109t185 36q111 0 300.5 -68.5t277.5 -68.5q87 0 175 35t212 121z" />
    <glyph glyph-name="notequal" unicode="&#x2260;" horiz-adv-x="1706" 
d="M1210 1180l88 -70l-196 -250h350v-115h-424l-211 -270h635v-115h-709l-251 -319l-89 70l197 249h-346v115h420l211 270h-631v115h704z" />
    <glyph glyph-name="lessequal" unicode="&#x2264;" horiz-adv-x="1706" 
d="M262 150h1182v-117h-1182v117zM1444 1192v-125l-977 -324l977 -323v-125l-1182 399v101z" />
    <glyph glyph-name="greaterequal" unicode="&#x2265;" horiz-adv-x="1706" 
d="M262 150h1182v-117h-1182v117zM262 1192l1182 -397v-101l-1182 -399v125l979 323l-979 324v125z" />
    <glyph glyph-name="lozenge" unicode="&#x25ca;" horiz-adv-x="1012" 
d="M506 1409l-385 -817l385 -825l385 825zM506 1653l500 -1061l-500 -1069l-500 1069z" />
    <glyph glyph-name="apple" unicode="&#xf000;" horiz-adv-x="1618" 
d="M836 1216q-1 6 -1.5 14t-0.5 23q0 124 95 229.5t236 131.5q1 -10 1.5 -23t0.5 -39q0 -131 -103.5 -234.5t-203.5 -103.5h-8q-3 0 -7.5 1t-8.5 1zM1505 403q-114 -247 -205 -342.5t-204 -95.5q-50 0 -131.5 33t-122.5 33q-45 0 -131 -33t-127 -33q-64 0 -128.5 44
t-129.5 132q-102 140 -157.5 295.5t-55.5 300.5q0 219 125 356.5t323 137.5q68 0 155 -34t124 -34q34 0 121.5 35t152.5 35q110 0 198 -40t161 -124q-102 -65 -151.5 -145.5t-49.5 -182.5q0 -113 60 -200t173 -138z" />
    <glyph glyph-name="fi" unicode="&#xf001;" horiz-adv-x="1161" 
d="M217 825h-141v37h141v152q0 206 95.5 300.5t301.5 94.5q147 0 233.5 -45.5t86.5 -120.5q0 -35 -20.5 -55.5t-57.5 -20.5q-58 0 -93 114q-1 2 -1 3q-13 41 -58 64.5t-112 23.5q-122 0 -169.5 -67.5t-47.5 -284.5v-158h291q69 0 141.5 9.5t150.5 29.5v-594q0 -200 26 -239
t116 -39h8v-29h-457v29h8q91 0 116.5 39t25.5 239v338q0 107 -35.5 143.5t-136.5 36.5h-254v-524q0 -193 25.5 -232.5t115.5 -39.5h8v-29h-454v29h8q88 0 113.5 37.5t25.5 240.5v518z" />
    <glyph glyph-name="fl" unicode="&#xf002;" horiz-adv-x="1161" 
d="M217 825h-141v37h141v152q0 200 83.5 296.5t256.5 96.5q55 0 106 -8.5t101 -26.5q64 13 109.5 24.5t84.5 24.5v-1114q0 -200 26 -239t116 -39h8v-29h-457v29h8q91 0 116.5 39t25.5 239v877h-4q-32 0 -51 20t-27 62q-11 53 -47 78.5t-101 25.5q-111 0 -153.5 -70
t-42.5 -280v-158h209v-37h-209v-524q0 -193 25.5 -232.5t115.5 -39.5h8v-29h-454v29h8q88 0 113.5 37.5t25.5 240.5v518z" />
    </font>
</defs>
</svg>
